solid f-16 3d
facet normal -6.005509674612595e-14 1.0 -7.026226939491468e-14
  outer loop
    vertex -3.4754098360657744 1.0000000000035005 53.000000000000036
    vertex -3.5076923076925763 1.0000000000035005 53.000000000000036
    vertex -4.000000000000229 1.0000000000040292 61.00000000000002
  endloop
endfacet
facet normal 6.005509674623761e-14 1.0 -7.026226939492197e-14
  outer loop
    vertex 29.999999999999854 1.0000000000040292 61.00000000000002
    vertex 29.507692307692157 1.0000000000035005 53.000000000000085
    vertex 29.475409836065413 1.0000000000035005 53.000000000000085
  endloop
endfacet
facet normal 0.998111869922868 -4.073668417030661e-15 -0.06142226891833156
  outer loop
    vertex 29.999999999999854 1.0000000000040292 61.00000000000002
    vertex 29.507692307692157 3.5023983713244888e-12 53.00000000000015
    vertex 29.507692307692157 1.0000000000035005 53.000000000000085
  endloop
endfacet
facet normal 0.998111869922868 -4.073668417030661e-15 -0.06142226891833156
  outer loop
    vertex 29.507692307692157 3.5023983713244888e-12 53.00000000000015
    vertex 29.999999999999854 1.0000000000040292 61.00000000000002
    vertex 29.999999999999854 4.031142086802219e-12 61.00000000000009
  endloop
endfacet
facet normal -0.9863939238321459 9.68617961305103e-15 0.16439898730534488
  outer loop
    vertex 6.999999999999355 -1.9999999999917586 125.00000000000027
    vertex 3.999999999999581 1.0000000000070688 107.00000000000003
    vertex 3.999999999999581 -3.9999999999929443 107.00000000000033
  endloop
endfacet
facet normal -0.9863939238321459 9.68617961305103e-15 0.16439898730534488
  outer loop
    vertex 3.999999999999581 1.0000000000070688 107.00000000000003
    vertex 6.999999999999355 -1.9999999999917586 125.00000000000027
    vertex 6.999999999999355 1.0000000000082585 125.00000000000007
  endloop
endfacet
facet normal 0.707106781186555 -0.7071067811865401 4.790587833990271e-14
  outer loop
    vertex 21.999999999999645 -3.999999999995984 61.00000000000035
    vertex 16.999999999999748 -9.000000000000176 5.899450859896866e-13
    vertex 25.99999999999968 0.0 -4.791918560168142e-15
  endloop
endfacet
facet normal 0.707106781186555 -0.7071067811865401 4.790587833990271e-14
  outer loop
    vertex 16.999999999999748 -9.000000000000176 5.899450859896866e-13
    vertex 21.999999999999645 -3.999999999995984 61.00000000000035
    vertex 16.999999999999748 -8.999999999995985 61.000000000000675
  endloop
endfacet
facet normal 0.707106781186555 -0.7071067811865401 4.790587833990271e-14
  outer loop
    vertex 16.999999999999748 -8.999999999995985 61.000000000000675
    vertex 21.999999999999645 -3.999999999995984 61.00000000000035
    vertex 21.999999999999645 -3.9999999999929443 107.00000000000033
  endloop
endfacet
facet normal 0.5524696139349211 -0.8287044209023483 0.08958966712463402
  outer loop
    vertex 24.99999999999955 -1.9999999999959877 61.00000000000021
    vertex 21.999999999999645 6.476053027171247e-12 98.00000000000004
    vertex 21.999999999999645 -3.999999999995984 61.00000000000035
  endloop
endfacet
facet normal -0.43401853995336487 -0.8680370799067313 0.24112141108525453
  outer loop
    vertex 10.999999999999439 -3.9999999999917555 125.0000000000004
    vertex 6.999999999999355 -1.9999999999917586 125.00000000000027
    vertex 8.999999999999803 -7.9999999999929425 107.00000000000061
  endloop
endfacet
facet normal -0.8574929257125374 3.421997649757909e-14 0.514495755427538
  outer loop
    vertex 12.999999999999527 1.000000000008919 135.00000000000006
    vertex 6.999999999999355 1.0000000000082585 125.00000000000007
    vertex 6.999999999999355 -1.9999999999917586 125.00000000000027
  endloop
endfacet
facet normal -1.0 0.0 0.0
  outer loop
    vertex 3.999999999999581 -3.9999999999929443 107.00000000000033
    vertex 3.999999999999581 6.476053027171247e-12 98.00000000000004
    vertex 3.999999999999581 -3.999999999995984 61.00000000000035
  endloop
endfacet
facet normal -1.0 0.0 0.0
  outer loop
    vertex 3.999999999999581 6.476053027171247e-12 98.00000000000004
    vertex 3.999999999999581 -3.9999999999929443 107.00000000000033
    vertex 3.999999999999581 1.0000000000064742 97.99999999999997
  endloop
endfacet
facet normal -1.0 0.0 0.0
  outer loop
    vertex 3.999999999999581 1.0000000000064742 97.99999999999997
    vertex 3.999999999999581 -3.9999999999929443 107.00000000000033
    vertex 3.999999999999581 1.0000000000070688 107.00000000000003
  endloop
endfacet
facet normal -0.6136165545373642 -0.7670206931717255 0.1874939472197961
  outer loop
    vertex 8.999999999999803 -7.9999999999929425 107.00000000000061
    vertex 6.999999999999355 -1.9999999999917586 125.00000000000027
    vertex 3.999999999999581 -3.9999999999929443 107.00000000000033
  endloop
endfacet
facet normal -0.7071067811865449 -0.7071067811865501 4.436656066811867e-14
  outer loop
    vertex 8.999999999999803 -8.999999999999837 5.899450859896641e-13
    vertex 3.999999999999581 -3.999999999995984 61.00000000000035
    vertex -5.639932965095795e-15 0.0 -4.791918560168142e-15
  endloop
endfacet
facet normal -0.7071067811865449 -0.7071067811865501 4.436656066811867e-14
  outer loop
    vertex 3.999999999999581 -3.999999999995984 61.00000000000035
    vertex 8.999999999999803 -8.999999999999837 5.899450859896641e-13
    vertex 3.999999999999581 -3.9999999999929443 107.00000000000033
  endloop
endfacet
facet normal -0.7071067811865449 -0.7071067811865501 4.436656066811867e-14
  outer loop
    vertex 3.999999999999581 -3.9999999999929443 107.00000000000033
    vertex 8.999999999999803 -8.999999999999837 5.899450859896641e-13
    vertex 8.999999999999803 -8.999999999995985 61.000000000000675
  endloop
endfacet
facet normal 1.0621754985514087e-17 -0.9761870601839385 0.21693045781872014
  outer loop
    vertex 16.999999999999748 -7.9999999999929425 107.00000000000061
    vertex 10.999999999999439 -3.9999999999917555 125.0000000000004
    vertex 8.999999999999803 -7.9999999999929425 107.00000000000061
  endloop
endfacet
facet normal 1.0621754985514087e-17 -0.9761870601839385 0.21693045781872014
  outer loop
    vertex 10.999999999999439 -3.9999999999917555 125.0000000000004
    vertex 16.999999999999748 -7.9999999999929425 107.00000000000061
    vertex 14.99999999999948 -3.9999999999917555 125.0000000000004
  endloop
endfacet
facet normal 0.37019903548672733 -0.9254975887168634 0.0800430346998963
  outer loop
    vertex 29.999999999999854 4.031142086802219e-12 61.00000000000009
    vertex 21.999999999999645 6.476053027171247e-12 98.00000000000004
    vertex 24.99999999999955 -1.9999999999959877 61.00000000000021
  endloop
endfacet
facet normal 0.0 1.0 -6.608188939442701e-14
  outer loop
    vertex 29.475409836065392 3.5023983713244888e-12 53.00000000000015
    vertex -5.639932965095795e-15 0.0 -4.791918560168142e-15
    vertex -3.4754098360660364 3.5023983713244888e-12 53.00000000000011
  endloop
endfacet
facet normal 0.0 1.0 -6.608188939442701e-14
  outer loop
    vertex -5.639932965095795e-15 0.0 -4.791918560168142e-15
    vertex 29.475409836065392 3.5023983713244888e-12 53.00000000000015
    vertex 25.99999999999968 0.0 -4.791918560168142e-15
  endloop
endfacet
facet normal 0.0 1.0 -6.608188939442701e-14
  outer loop
    vertex 25.99999999999968 0.0 -4.791918560168142e-15
    vertex 29.475409836065392 3.5023983713244888e-12 53.00000000000015
    vertex 29.507692307692157 3.5023983713244888e-12 53.00000000000015
  endloop
endfacet
facet normal 0.5546084818178814 -0.831912722726796 -0.01818388464970968
  outer loop
    vertex 25.99999999999968 0.0 -4.791918560168142e-15
    vertex 24.99999999999955 -1.9999999999959877 61.00000000000021
    vertex 21.999999999999645 -3.999999999995984 61.00000000000035
  endloop
endfacet
facet normal 0.371280590839443 -0.9282014770986579 -0.024346268251706382
  outer loop
    vertex 24.99999999999955 -1.9999999999959877 61.00000000000021
    vertex 29.475409836065392 3.5023983713244888e-12 53.00000000000015
    vertex 29.999999999999854 4.031142086802219e-12 61.00000000000009
  endloop
endfacet
facet normal 0.371280590839443 -0.9282014770986579 -0.024346268251706382
  outer loop
    vertex 29.475409836065392 3.5023983713244888e-12 53.00000000000015
    vertex 24.99999999999955 -1.9999999999959877 61.00000000000021
    vertex 25.99999999999968 0.0 -4.791918560168142e-15
  endloop
endfacet
facet normal -0.6246050595321427 -0.7807563244152136 0.016972963574295542
  outer loop
    vertex 8.999999999999803 -7.9999999999929425 107.00000000000061
    vertex 3.999999999999581 -3.9999999999929443 107.00000000000033
    vertex 8.999999999999803 -8.999999999995985 61.000000000000675
  endloop
endfacet
facet normal 0.0 1.0 -6.608188939442701e-14
  outer loop
    vertex -5.639932965095795e-15 0.0 -4.791918560168142e-15
    vertex -3.5076923076925763 3.5023983713244888e-12 53.00000000000011
    vertex -3.4754098360660364 3.5023983713244888e-12 53.00000000000011
  endloop
endfacet
facet normal 0.0 1.0 -6.608188939442701e-14
  outer loop
    vertex 29.475409836065392 3.5023983713244888e-12 53.00000000000015
    vertex -5.639932965095795e-15 0.0 -4.791918560168142e-15
    vertex -3.4754098360660364 3.5023983713244888e-12 53.00000000000011
  endloop
endfacet
facet normal 0.0 1.0 -6.608188939442701e-14
  outer loop
    vertex -5.639932965095795e-15 0.0 -4.791918560168142e-15
    vertex 29.475409836065392 3.5023983713244888e-12 53.00000000000015
    vertex 25.99999999999968 0.0 -4.791918560168142e-15
  endloop
endfacet
facet normal 0.0 -0.9997637888239149 0.021733995409281715
  outer loop
    vertex 16.999999999999748 -8.999999999995985 61.000000000000675
    vertex 8.999999999999803 -7.9999999999929425 107.00000000000061
    vertex 8.999999999999803 -8.999999999995985 61.000000000000675
  endloop
endfacet
facet normal 0.0 -0.9997637888239149 0.021733995409281715
  outer loop
    vertex 8.999999999999803 -7.9999999999929425 107.00000000000061
    vertex 16.999999999999748 -8.999999999995985 61.000000000000675
    vertex 16.999999999999748 -7.9999999999929425 107.00000000000061
  endloop
endfacet
facet normal -2.0985797079425555e-14 -1.0 6.728384232141468e-14
  outer loop
    vertex 16.999999999999748 -9.000000000000176 5.899450859896866e-13
    vertex 8.999999999999803 -8.999999999995985 61.000000000000675
    vertex 8.999999999999803 -8.999999999999837 5.899450859896641e-13
  endloop
endfacet
facet normal -2.0985797079425555e-14 -1.0 6.728384232141468e-14
  outer loop
    vertex 8.999999999999803 -8.999999999995985 61.000000000000675
    vertex 16.999999999999748 -9.000000000000176 5.899450859896866e-13
    vertex 16.999999999999748 -8.999999999995985 61.000000000000675
  endloop
endfacet
facet normal 0.3940552031195509 -0.7881104062390689 0.47286624374351294
  outer loop
    vertex 18.99999999999947 -1.9999999999917586 125.00000000000027
    vertex 12.999999999999527 1.000000000008919 135.00000000000006
    vertex 14.99999999999948 -3.9999999999917555 125.0000000000004
  endloop
endfacet
facet normal -0.5546084818178757 -0.8319127227267996 -0.01818388464971439
  outer loop
    vertex 3.999999999999581 -3.999999999995984 61.00000000000035
    vertex 0.9999999999996315 -1.9999999999959877 61.00000000000021
    vertex -5.639932965095795e-15 0.0 -4.791918560168142e-15
  endloop
endfacet
facet normal -1.9120052387777416e-29 -0.8944271909998852 0.4472135955000191
  outer loop
    vertex 14.99999999999948 -3.9999999999917555 125.0000000000004
    vertex 12.999999999999527 1.000000000008919 135.00000000000006
    vertex 10.999999999999439 -3.9999999999917555 125.0000000000004
  endloop
endfacet
facet normal 0.8574929257125458 3.377772671054945e-14 0.5144957554275239
  outer loop
    vertex 12.999999999999527 1.000000000008919 135.00000000000006
    vertex 18.99999999999947 -1.9999999999917586 125.00000000000027
    vertex 18.99999999999947 1.0000000000082585 125.00000000000007
  endloop
endfacet
facet normal -0.5524696139349152 -0.8287044209023523 0.08958966712463444
  outer loop
    vertex 3.999999999999581 6.476053027171247e-12 98.00000000000004
    vertex 0.9999999999996315 -1.9999999999959877 61.00000000000021
    vertex 3.999999999999581 -3.999999999995984 61.00000000000035
  endloop
endfacet
facet normal 0.6136165545373865 -0.7670206931717042 0.18749394721981108
  outer loop
    vertex 21.999999999999645 -3.9999999999929443 107.00000000000033
    vertex 18.99999999999947 -1.9999999999917586 125.00000000000027
    vertex 16.999999999999748 -7.9999999999929425 107.00000000000061
  endloop
endfacet
facet normal 0.9863939238321423 9.686179613052444e-15 0.16439898730536626
  outer loop
    vertex 21.999999999999645 1.0000000000070688 107.00000000000003
    vertex 18.99999999999947 -1.9999999999917586 125.00000000000027
    vertex 21.999999999999645 -3.9999999999929443 107.00000000000033
  endloop
endfacet
facet normal 0.9863939238321423 9.686179613052444e-15 0.16439898730536626
  outer loop
    vertex 18.99999999999947 -1.9999999999917586 125.00000000000027
    vertex 21.999999999999645 1.0000000000070688 107.00000000000003
    vertex 18.99999999999947 1.0000000000082585 125.00000000000007
  endloop
endfacet
facet normal -0.3701990354867557 -0.9254975887168517 0.08004303469989842
  outer loop
    vertex 3.999999999999581 6.476053027171247e-12 98.00000000000004
    vertex -4.000000000000229 4.031142086802219e-12 61.00000000000009
    vertex 0.9999999999996315 -1.9999999999959877 61.00000000000021
  endloop
endfacet
facet normal 0.43401853995337125 -0.8680370799067242 0.2411214110852689
  outer loop
    vertex 18.99999999999947 -1.9999999999917586 125.00000000000027
    vertex 14.99999999999948 -3.9999999999917555 125.0000000000004
    vertex 16.999999999999748 -7.9999999999929425 107.00000000000061
  endloop
endfacet
facet normal 0.6246050595321672 -0.7807563244151939 0.016972963574295116
  outer loop
    vertex 21.999999999999645 -3.9999999999929443 107.00000000000033
    vertex 16.999999999999748 -7.9999999999929425 107.00000000000061
    vertex 16.999999999999748 -8.999999999995985 61.000000000000675
  endloop
endfacet
facet normal -0.9774141654398683 1.3965270221219912e-14 0.2113327925275343
  outer loop
    vertex 3.999999999999581 6.476053027171247e-12 98.00000000000004
    vertex -4.000000000000229 1.0000000000040292 61.00000000000002
    vertex -4.000000000000229 4.031142086802219e-12 61.00000000000009
  endloop
endfacet
facet normal -0.9774141654398683 1.3965270221219912e-14 0.2113327925275343
  outer loop
    vertex -4.000000000000229 1.0000000000040292 61.00000000000002
    vertex 3.999999999999581 6.476053027171247e-12 98.00000000000004
    vertex 3.999999999999581 1.0000000000064742 97.99999999999997
  endloop
endfacet
facet normal 1.0 0.0 0.0
  outer loop
    vertex 21.999999999999645 1.0000000000070688 107.00000000000003
    vertex 21.999999999999645 6.476053027171247e-12 98.00000000000004
    vertex 21.999999999999645 1.0000000000064742 97.99999999999997
  endloop
endfacet
facet normal 1.0 0.0 0.0
  outer loop
    vertex 21.999999999999645 6.476053027171247e-12 98.00000000000004
    vertex 21.999999999999645 1.0000000000070688 107.00000000000003
    vertex 21.999999999999645 -3.9999999999929443 107.00000000000033
  endloop
endfacet
facet normal 1.0 0.0 0.0
  outer loop
    vertex 21.999999999999645 -3.9999999999929443 107.00000000000033
    vertex 21.999999999999645 -3.999999999995984 61.00000000000035
    vertex 21.999999999999645 6.476053027171247e-12 98.00000000000004
  endloop
endfacet
facet normal 0.977414165439866 1.3965270221220581e-14 0.21133279252754442
  outer loop
    vertex 21.999999999999645 1.0000000000064742 97.99999999999997
    vertex 29.999999999999854 4.031142086802219e-12 61.00000000000009
    vertex 29.999999999999854 1.0000000000040292 61.00000000000002
  endloop
endfacet
facet normal 0.977414165439866 1.3965270221220581e-14 0.21133279252754442
  outer loop
    vertex 29.999999999999854 4.031142086802219e-12 61.00000000000009
    vertex 21.999999999999645 1.0000000000064742 97.99999999999997
    vertex 21.999999999999645 6.476053027171247e-12 98.00000000000004
  endloop
endfacet
facet normal 1.0 0.0 0.0
  outer loop
    vertex 16.999999999999748 -7.9999999999929425 107.00000000000061
    vertex 16.999999999999748 -8.999999999995985 61.000000000000675
    vertex 16.999999999999748 -7.999999999993538 98.00000000000057
  endloop
endfacet
facet normal 0.0 -1.0 6.608188939442701e-14
  outer loop
    vertex 29.999999999999854 4.031142086802219e-12 61.00000000000009
    vertex 29.475409836065392 3.5023983713244888e-12 53.00000000000015
    vertex 29.507692307692157 3.5023983713244888e-12 53.00000000000015
  endloop
endfacet
facet normal -0.39405520311954323 -0.78811040623907 0.4728662437435174
  outer loop
    vertex 12.999999999999527 1.000000000008919 135.00000000000006
    vertex 6.999999999999355 -1.9999999999917586 125.00000000000027
    vertex 10.999999999999439 -3.9999999999917555 125.0000000000004
  endloop
endfacet
facet normal 0.21693045781865145 0.976187060183954 -7.774130984047127e-14
  outer loop
    vertex 21.999999999999645 1.0000000000070688 107.00000000000003
    vertex 12.999999999999662 3.000000000005321 84.99999999999991
    vertex 12.999999999999574 3.0000000000070624 106.9999999999999
  endloop
endfacet
facet normal 0.21693045781865145 0.976187060183954 -7.774130984047127e-14
  outer loop
    vertex 12.999999999999662 3.000000000005321 84.99999999999991
    vertex 21.999999999999645 1.0000000000070688 107.00000000000003
    vertex 21.999999999999552 1.000000000005322 85.00000000000004
  endloop
endfacet
facet normal 0.21693045781865145 0.976187060183954 -7.774130984047127e-14
  outer loop
    vertex 21.999999999999552 1.000000000005322 85.00000000000004
    vertex 21.999999999999645 1.0000000000070688 107.00000000000003
    vertex 21.999999999999645 1.0000000000064742 97.99999999999997
  endloop
endfacet
facet normal 0.3106848830006035 0.9320546490018112 0.18641092980029916
  outer loop
    vertex 18.99999999999947 1.0000000000082585 125.00000000000007
    vertex 12.999999999999574 3.000000000008252 124.99999999999993
    vertex 12.999999999999527 1.000000000008919 135.00000000000006
  endloop
endfacet
facet normal -0.21693045781865064 0.9761870601839542 -7.815619512251847e-14
  outer loop
    vertex 12.999999999999574 3.0000000000070624 106.9999999999999
    vertex 3.999999999999581 1.0000000000064742 97.99999999999997
    vertex 3.999999999999581 1.0000000000070688 107.00000000000003
  endloop
endfacet
facet normal -0.21693045781865064 0.9761870601839542 -7.815619512251847e-14
  outer loop
    vertex 3.999999999999581 1.0000000000064742 97.99999999999997
    vertex 12.999999999999574 3.0000000000070624 106.9999999999999
    vertex 3.999999999999581 1.000000000005322 85.00000000000004
  endloop
endfacet
facet normal -0.21693045781865064 0.9761870601839542 -7.815619512251847e-14
  outer loop
    vertex 3.999999999999581 1.000000000005322 85.00000000000004
    vertex 12.999999999999574 3.0000000000070624 106.9999999999999
    vertex 12.999999999999662 3.000000000005321 84.99999999999991
  endloop
endfacet
facet normal 0.31578947368421406 0.9473684210526339 0.052631578947309396
  outer loop
    vertex 21.999999999999645 1.0000000000070688 107.00000000000003
    vertex 12.999999999999574 3.000000000008252 124.99999999999993
    vertex 18.99999999999947 1.0000000000082585 125.00000000000007
  endloop
endfacet
facet normal -0.3106848830005889 0.9320546490018162 0.18641092980029741
  outer loop
    vertex 12.999999999999574 3.000000000008252 124.99999999999993
    vertex 6.999999999999355 1.0000000000082585 125.00000000000007
    vertex 12.999999999999527 1.000000000008919 135.00000000000006
  endloop
endfacet
facet normal -0.21693045781865547 0.9761870601839528 -6.450828533934684e-14
  outer loop
    vertex 12.999999999999574 3.0000000000070624 106.9999999999999
    vertex 3.999999999999581 1.0000000000070688 107.00000000000003
    vertex 12.999999999999574 3.000000000008252 124.99999999999993
  endloop
endfacet
facet normal 0.2169304578186535 0.9761870601839533 -6.450828533934686e-14
  outer loop
    vertex 21.999999999999645 1.0000000000070688 107.00000000000003
    vertex 12.999999999999574 3.0000000000070624 106.9999999999999
    vertex 12.999999999999574 3.000000000008252 124.99999999999993
  endloop
endfacet
facet normal -0.31578947368419924 0.9473684210526392 0.05263157894729991
  outer loop
    vertex 12.999999999999574 3.000000000008252 124.99999999999993
    vertex 3.999999999999581 1.0000000000070688 107.00000000000003
    vertex 6.999999999999355 1.0000000000082585 125.00000000000007
  endloop
endfacet
facet normal -0.37128059083946263 -0.92820147709865 -0.0243462682517087
  outer loop
    vertex -3.4754098360660364 3.5023983713244888e-12 53.00000000000011
    vertex 0.9999999999996315 -1.9999999999959877 61.00000000000021
    vertex -4.000000000000229 4.031142086802219e-12 61.00000000000009
  endloop
endfacet
facet normal -0.37128059083946263 -0.92820147709865 -0.0243462682517087
  outer loop
    vertex 0.9999999999996315 -1.9999999999959877 61.00000000000021
    vertex -3.4754098360660364 3.5023983713244888e-12 53.00000000000011
    vertex -5.639932965095795e-15 0.0 -4.791918560168142e-15
  endloop
endfacet
facet normal 0.0 1.0 -6.608188939442701e-14
  outer loop
    vertex -3.4754098360660364 3.5023983713244888e-12 53.00000000000011
    vertex -3.5076923076925763 3.5023983713244888e-12 53.00000000000011
    vertex -4.000000000000229 4.031142086802219e-12 61.00000000000009
  endloop
endfacet
facet normal -0.9981118699228685 -4.0564828623950246e-15 -0.0614222689183256
  outer loop
    vertex -4.000000000000229 4.031142086802219e-12 61.00000000000009
    vertex -3.5076923076925763 1.0000000000035005 53.000000000000036
    vertex -3.5076923076925763 3.5023983713244888e-12 53.00000000000011
  endloop
endfacet
facet normal -0.9981118699228685 -4.0564828623950246e-15 -0.0614222689183256
  outer loop
    vertex -3.5076923076925763 1.0000000000035005 53.000000000000036
    vertex -4.000000000000229 4.031142086802219e-12 61.00000000000009
    vertex -4.000000000000229 1.0000000000040292 61.00000000000002
  endloop
endfacet
facet normal 1.2297353196208253e-15 -7.172182235952308e-14 -1.0
  outer loop
    vertex 29.507692307692157 3.5023983713244888e-12 53.00000000000015
    vertex 29.475409836065413 1.0000000000035005 53.000000000000085
    vertex 29.507692307692157 1.0000000000035005 53.000000000000085
  endloop
endfacet
facet normal 1.2297353196208253e-15 -7.172182235952308e-14 -1.0
  outer loop
    vertex 29.475409836065413 1.0000000000035005 53.000000000000085
    vertex 29.507692307692157 3.5023983713244888e-12 53.00000000000015
    vertex -3.4754098360657744 1.0000000000035005 53.000000000000036
  endloop
endfacet
facet normal 1.2297353196208253e-15 -7.172182235952308e-14 -1.0
  outer loop
    vertex -3.4754098360657744 1.0000000000035005 53.000000000000036
    vertex 29.507692307692157 3.5023983713244888e-12 53.00000000000015
    vertex -3.5076923076925763 1.0000000000035005 53.000000000000036
  endloop
endfacet
facet normal 1.2297353196208253e-15 -7.172182235952308e-14 -1.0
  outer loop
    vertex -3.5076923076925763 1.0000000000035005 53.000000000000036
    vertex 29.507692307692157 3.5023983713244888e-12 53.00000000000015
    vertex -3.5076923076925763 3.5023983713244888e-12 53.00000000000011
  endloop
endfacet
facet normal 1.2297353196208253e-15 -7.172182235952308e-14 -1.0
  outer loop
    vertex -3.5076923076925763 3.5023983713244888e-12 53.00000000000011
    vertex 29.507692307692157 3.5023983713244888e-12 53.00000000000015
    vertex 29.475409836065392 3.5023983713244888e-12 53.00000000000015
  endloop
endfacet
facet normal 1.2297353196208253e-15 -7.172182235952308e-14 -1.0
  outer loop
    vertex -3.5076923076925763 3.5023983713244888e-12 53.00000000000011
    vertex 29.475409836065392 3.5023983713244888e-12 53.00000000000015
    vertex -3.4754098360660364 3.5023983713244888e-12 53.00000000000011
  endloop
endfacet
facet normal 0.0 -6.608188939442701e-14 -1.0
  outer loop
    vertex 3.999999999999581 1.000000000005322 85.00000000000004
    vertex 12.999999999999662 3.000000000005321 84.99999999999991
    vertex 21.999999999999552 1.000000000005322 85.00000000000004
  endloop
endfacet
facet normal -2.3981806494336804e-16 1.0 -6.40166837500479e-14
  outer loop
    vertex 3.999999999999581 1.0000000000064742 97.99999999999997
    vertex -3.4754098360657744 1.0000000000035005 53.000000000000036
    vertex -4.000000000000229 1.0000000000040292 61.00000000000002
  endloop
endfacet
facet normal -2.3981806494336804e-16 1.0 -6.40166837500479e-14
  outer loop
    vertex -3.4754098360657744 1.0000000000035005 53.000000000000036
    vertex 3.999999999999581 1.0000000000064742 97.99999999999997
    vertex 3.999999999999581 1.000000000005322 85.00000000000004
  endloop
endfacet
facet normal -2.3981806494336804e-16 1.0 -6.40166837500479e-14
  outer loop
    vertex -3.4754098360657744 1.0000000000035005 53.000000000000036
    vertex 3.999999999999581 1.000000000005322 85.00000000000004
    vertex 29.475409836065413 1.0000000000035005 53.000000000000085
  endloop
endfacet
facet normal -2.3981806494336804e-16 1.0 -6.40166837500479e-14
  outer loop
    vertex 29.475409836065413 1.0000000000035005 53.000000000000085
    vertex 3.999999999999581 1.000000000005322 85.00000000000004
    vertex 21.999999999999552 1.000000000005322 85.00000000000004
  endloop
endfacet
facet normal -2.3981806494336804e-16 1.0 -6.40166837500479e-14
  outer loop
    vertex 29.475409836065413 1.0000000000035005 53.000000000000085
    vertex 21.999999999999552 1.000000000005322 85.00000000000004
    vertex 21.999999999999645 1.0000000000064742 97.99999999999997
  endloop
endfacet
facet normal -2.3981806494336804e-16 1.0 -6.40166837500479e-14
  outer loop
    vertex 29.475409836065413 1.0000000000035005 53.000000000000085
    vertex 21.999999999999645 1.0000000000064742 97.99999999999997
    vertex 29.999999999999854 1.0000000000040292 61.00000000000002
  endloop
endfacet
facet normal 0.0 -6.608188939442701e-14 -1.0
  outer loop
    vertex 16.999999999999748 -9.000000000000176 5.899450859896866e-13
    vertex -5.639932965095795e-15 0.0 -4.791918560168142e-15
    vertex 25.99999999999968 0.0 -4.791918560168142e-15
  endloop
endfacet
facet normal 0.0 -6.608188939442701e-14 -1.0
  outer loop
    vertex -5.639932965095795e-15 0.0 -4.791918560168142e-15
    vertex 16.999999999999748 -9.000000000000176 5.899450859896866e-13
    vertex 8.999999999999803 -8.999999999999837 5.899450859896641e-13
  endloop
endfacet
endsolid f-16 3d
