solid f-16 3d
facet normal -0.9284464310814425 0.008073447226794416 0.37137857243250955
  outer loop
    vertex 0.0 -12.197118223651806 0.26515474399241573
    vertex 0.0 -22.999999999999993 0.5000000000000048
    vertex 1.9999999999996354 -12.197118223651806 5.2651547439924125
  endloop
endfacet
facet normal 0.9219193657511076 0.008419354938367396 0.38729032716490264
  outer loop
    vertex 5.999999999999673 -23.197118223651838 5.2651547439924125
    vertex 7.9999999999999405 -46.000000000000014 1.0000000000000038
    vertex 7.9999999999999405 -23.197118223651838 0.5042851787750463
  endloop
endfacet
facet normal -0.9219193657511513 0.00841935493836517 0.38729032716479855
  outer loop
    vertex 0.0 -22.999999999999993 0.5000000000000048
    vertex 0.0 -46.000000000000014 1.0000000000000038
    vertex 1.9999999999996354 -23.197118223651838 5.2651547439924125
  endloop
endfacet
facet normal 0.9284464310814019 0.008073447226795436 0.37137857243261063
  outer loop
    vertex 7.9999999999999405 -5.639932965095795e-15 0.0
    vertex 5.999999999999673 -12.197118223651806 5.2651547439924125
    vertex 7.9999999999999405 -12.197118223651806 0.26515474399241573
  endloop
endfacet
facet normal 0.9219520428632915 2.2755521506792006e-17 0.38730405453623096
  outer loop
    vertex 5.999999999999673 -12.197118223651806 5.2651547439924125
    vertex 5.999999999999673 -23.197118223651838 5.2651547439924125
    vertex 7.9999999999999405 -23.197118223651838 0.5042851787750463
  endloop
endfacet
facet normal 0.9284464310814019 0.00807344722679659 0.3713785724326107
  outer loop
    vertex 5.999999999999673 -12.197118223651806 5.2651547439924125
    vertex 7.9999999999999405 -23.197118223651838 0.5042851787750463
    vertex 7.9999999999999405 -12.197118223651806 0.26515474399241573
  endloop
endfacet
facet normal -0.9284464310814423 0.008073447226793252 0.37137857243250955
  outer loop
    vertex 0.0 -5.639932965095795e-15 0.0
    vertex 0.0 -12.197118223651806 0.26515474399241573
    vertex 1.9999999999996354 -12.197118223651806 5.2651547439924125
  endloop
endfacet
facet normal -8.383835730869495e-18 0.3963229156509218 0.9181111841873797
  outer loop
    vertex 1.9999999999996354 -12.197118223651806 5.2651547439924125
    vertex 7.9999999999999405 -5.639932965095795e-15 0.0
    vertex 0.0 -5.639932965095795e-15 0.0
  endloop
endfacet
facet normal -8.383835730869495e-18 0.3963229156509218 0.9181111841873797
  outer loop
    vertex 7.9999999999999405 -5.639932965095795e-15 0.0
    vertex 1.9999999999996354 -12.197118223651806 5.2651547439924125
    vertex 5.999999999999673 -12.197118223651806 5.2651547439924125
  endloop
endfacet
facet normal 0.0 0.0 1.0
  outer loop
    vertex 5.999999999999673 -23.197118223651838 5.2651547439924125
    vertex 1.9999999999996354 -12.197118223651806 5.2651547439924125
    vertex 1.9999999999996354 -23.197118223651838 5.2651547439924125
  endloop
endfacet
facet normal 0.0 0.0 1.0
  outer loop
    vertex 1.9999999999996354 -12.197118223651806 5.2651547439924125
    vertex 5.999999999999673 -23.197118223651838 5.2651547439924125
    vertex 5.999999999999673 -12.197118223651806 5.2651547439924125
  endloop
endfacet
facet normal -0.922076378860984 -2.2717676351594063e-17 0.3870079476530364
  outer loop
    vertex 1.9999999999996354 -12.197118223651806 5.2651547439924125
    vertex 0.0 -22.999999999999993 0.5000000000000048
    vertex 1.9999999999996354 -23.197118223651838 5.2651547439924125
  endloop
endfacet
facet normal 2.5562351479252872e-17 -0.18385603492386066 0.9829531822127014
  outer loop
    vertex 7.9999999999999405 -46.000000000000014 1.0000000000000038
    vertex 1.9999999999996354 -23.197118223651838 5.2651547439924125
    vertex 0.0 -46.000000000000014 1.0000000000000038
  endloop
endfacet
facet normal 2.5562351479252872e-17 -0.18385603492386066 0.9829531822127014
  outer loop
    vertex 1.9999999999996354 -23.197118223651838 5.2651547439924125
    vertex 7.9999999999999405 -46.000000000000014 1.0000000000000038
    vertex 5.999999999999673 -23.197118223651838 5.2651547439924125
  endloop
endfacet
facet normal 1.0 0.0 0.0
  outer loop
    vertex 7.9999999999999405 -9.000000000000057 0.0
    vertex 7.9999999999999405 -23.197118223651838 0.5042851787750463
    vertex 7.9999999999999405 -46.000000000000014 1.0000000000000038
  endloop
endfacet
facet normal 1.0 0.0 0.0
  outer loop
    vertex 7.9999999999999405 -23.197118223651838 0.5042851787750463
    vertex 7.9999999999999405 -9.000000000000057 0.0
    vertex 7.9999999999999405 -12.197118223651806 0.26515474399241573
  endloop
endfacet
facet normal 1.0 0.0 0.0
  outer loop
    vertex 7.9999999999999405 -12.197118223651806 0.26515474399241573
    vertex 7.9999999999999405 -9.000000000000057 0.0
    vertex 7.9999999999999405 -5.639932965095795e-15 0.0
  endloop
endfacet
facet normal 4.3095872824019844e-17 -0.021733995409215764 -0.9997637888239164
  outer loop
    vertex 7.9999999999999405 -5.639932965095795e-15 0.0
    vertex 0.0 -12.197118223651806 0.26515474399241573
    vertex 0.0 -5.639932965095795e-15 0.0
  endloop
endfacet
facet normal 4.3095872824019844e-17 -0.021733995409215764 -0.9997637888239164
  outer loop
    vertex 0.0 -12.197118223651806 0.26515474399241573
    vertex 7.9999999999999405 -5.639932965095795e-15 0.0
    vertex 0.0 -22.999999999999993 0.5000000000000048
  endloop
endfacet
facet normal 4.3095872824019844e-17 -0.021733995409215764 -0.9997637888239164
  outer loop
    vertex 0.0 -22.999999999999993 0.5000000000000048
    vertex 7.9999999999999405 -5.639932965095795e-15 0.0
    vertex 0.0 -46.000000000000014 1.0000000000000038
  endloop
endfacet
facet normal 4.3095872824019844e-17 -0.021733995409215764 -0.9997637888239164
  outer loop
    vertex 0.0 -46.000000000000014 1.0000000000000038
    vertex 7.9999999999999405 -5.639932965095795e-15 0.0
    vertex 7.9999999999999405 -46.000000000000014 1.0000000000000038
  endloop
endfacet
facet normal 4.3095872824019844e-17 -0.021733995409215764 -0.9997637888239164
  outer loop
    vertex 7.9999999999999405 -46.000000000000014 1.0000000000000038
    vertex 7.9999999999999405 -5.639932965095795e-15 0.0
    vertex 7.9999999999999405 -12.197118223651806 0.26515474399241573
  endloop
endfacet
facet normal 4.3095872824019844e-17 -0.021733995409215764 -0.9997637888239164
  outer loop
    vertex 7.9999999999999405 -46.000000000000014 1.0000000000000038
    vertex 7.9999999999999405 -12.197118223651806 0.26515474399241573
    vertex 7.9999999999999405 -23.197118223651838 0.5042851787750463
  endloop
endfacet
endsolid f-16 3d
