solid f-16 3d
facet normal 0.0 1.0 0.0
  outer loop
    vertex 7.72301643228129 0.844220058899785 0.9999999999999812
    vertex 41.723016432281455 0.844220058899785 -2.255973186038318e-14
    vertex 7.72301643228129 0.844220058899785 -2.255973186038318e-14
  endloop
endfacet
facet normal 0.0 1.0 0.0
  outer loop
    vertex 41.723016432281455 0.844220058899785 -2.255973186038318e-14
    vertex 7.72301643228129 0.844220058899785 0.9999999999999812
    vertex 41.723016432281455 0.844220058899785 0.9999999999999812
  endloop
endfacet
facet normal -1.0 0.0 0.0
  outer loop
    vertex -45.276983567719064 -35.1557799411004 0.9999999999999756
    vertex -45.276983567719064 -53.15577994110036 -2.255973186038318e-14
    vertex -45.276983567719064 -53.15577994110036 0.9999999999999812
  endloop
endfacet
facet normal -1.0 0.0 0.0
  outer loop
    vertex -45.276983567719064 -53.15577994110036 -2.255973186038318e-14
    vertex -45.276983567719064 -35.1557799411004 0.9999999999999756
    vertex -45.276983567719064 -35.1557799411004 -2.255973186038318e-14
  endloop
endfacet
facet normal -9.138534517419849e-33 7.856068790846064e-18 -1.0
  outer loop
    vertex -45.276983567719064 -35.1557799411004 -2.255973186038318e-14
    vertex -39.677906715658985 -47.05053297878352 -2.255973186038318e-14
    vertex -45.276983567719064 -53.15577994110036 -2.255973186038318e-14
  endloop
endfacet
facet normal -9.138534517419849e-33 7.856068790846064e-18 -1.0
  outer loop
    vertex -39.677906715658985 -47.05053297878352 -2.255973186038318e-14
    vertex -45.276983567719064 -35.1557799411004 -2.255973186038318e-14
    vertex 7.72301643228129 0.844220058899785 -2.255973186038318e-14
  endloop
endfacet
facet normal -9.138534517419849e-33 7.856068790846064e-18 -1.0
  outer loop
    vertex -39.677906715658985 -47.05053297878352 -2.255973186038318e-14
    vertex 7.72301643228129 0.844220058899785 -2.255973186038318e-14
    vertex -39.277906715658986 -47.05053297878352 -2.255973186038318e-14
  endloop
endfacet
facet normal -9.138534517419849e-33 7.856068790846064e-18 -1.0
  outer loop
    vertex -39.277906715658986 -47.05053297878352 -2.255973186038318e-14
    vertex 7.72301643228129 0.844220058899785 -2.255973186038318e-14
    vertex -39.277906715658986 -53.05053297878352 -2.255973186038318e-14
  endloop
endfacet
facet normal -9.138534517419849e-33 7.856068790846064e-18 -1.0
  outer loop
    vertex -39.277906715658986 -53.05053297878352 -2.255973186038318e-14
    vertex 7.72301643228129 0.844220058899785 -2.255973186038318e-14
    vertex -19.280983875458716 -46.6997097710607 -2.255973186038318e-14
  endloop
endfacet
facet normal -9.138534517419849e-33 7.856068790846064e-18 -1.0
  outer loop
    vertex -19.280983875458716 -46.6997097710607 -2.255973186038318e-14
    vertex 7.72301643228129 0.844220058899785 -2.255973186038318e-14
    vertex -18.881045418654708 -46.69269330690624 -2.255973186038318e-14
  endloop
endfacet
facet normal -9.138534517419849e-33 7.856068790846064e-18 -1.0
  outer loop
    vertex -18.881045418654708 -46.69269330690624 -2.255973186038318e-14
    vertex 7.72301643228129 0.844220058899785 -2.255973186038318e-14
    vertex -18.881045418654708 -52.69269330690624 -2.255973186038318e-14
  endloop
endfacet
facet normal -9.138534517419849e-33 7.856068790846064e-18 -1.0
  outer loop
    vertex -18.881045418654708 -52.69269330690624 -2.255973186038318e-14
    vertex 7.72301643228129 0.844220058899785 -2.255973186038318e-14
    vertex -12.282060881388619 -44.576921648357704 -2.255973186038318e-14
  endloop
endfacet
facet normal -9.138534517419849e-33 7.856068790846064e-18 -1.0
  outer loop
    vertex -12.282060881388619 -44.576921648357704 -2.255973186038318e-14
    vertex 7.72301643228129 0.844220058899785 -2.255973186038318e-14
    vertex -11.882122424584615 -44.56990518420326 -2.255973186038318e-14
  endloop
endfacet
facet normal -9.138534517419849e-33 7.856068790846064e-18 -1.0
  outer loop
    vertex -11.882122424584615 -44.56990518420326 -2.255973186038318e-14
    vertex 7.72301643228129 0.844220058899785 -2.255973186038318e-14
    vertex -11.882122424584615 -52.56990518420325 -2.255973186038318e-14
  endloop
endfacet
facet normal -9.138534517419849e-33 7.856068790846064e-18 -1.0
  outer loop
    vertex -11.882122424584615 -52.56990518420325 -2.255973186038318e-14
    vertex 7.72301643228129 0.844220058899785 -2.255973186038318e-14
    vertex 5.115261989585612 -44.27170545763885 -1.868227794687982e-14
  endloop
endfacet
facet normal -9.138534517419849e-33 7.856068790846064e-18 -1.0
  outer loop
    vertex 5.115261989585612 -44.27170545763885 -1.868227794687982e-14
    vertex 7.72301643228129 0.844220058899785 -2.255973186038318e-14
    vertex 5.515200446389621 -44.2646889934844 -1.868227794687982e-14
  endloop
endfacet
facet normal -9.138534517419849e-33 7.856068790846064e-18 -1.0
  outer loop
    vertex 5.515200446389621 -44.2646889934844 -1.868227794687982e-14
    vertex 7.72301643228129 0.844220058899785 -2.255973186038318e-14
    vertex 5.515200446389621 -52.2646889934844 -1.868227794687982e-14
  endloop
endfacet
facet normal -9.138534517419849e-33 7.856068790846064e-18 -1.0
  outer loop
    vertex 5.515200446389621 -52.2646889934844 -1.868227794687982e-14
    vertex 7.72301643228129 0.844220058899785 -2.255973186038318e-14
    vertex 11.723016432281508 -52.15577994110032 -2.255973186038318e-14
  endloop
endfacet
facet normal -9.138534517419849e-33 7.856068790846064e-18 -1.0
  outer loop
    vertex 11.723016432281508 -52.15577994110032 -2.255973186038318e-14
    vertex 7.72301643228129 0.844220058899785 -2.255973186038318e-14
    vertex 41.723016432281455 0.844220058899785 -2.255973186038318e-14
  endloop
endfacet
facet normal -9.138534517419849e-33 7.856068790846064e-18 -1.0
  outer loop
    vertex 11.723016432281508 -52.15577994110032 -2.255973186038318e-14
    vertex 41.723016432281455 0.844220058899785 -2.255973186038318e-14
    vertex 37.723016432281234 -52.15577994110032 -2.255973186038318e-14
  endloop
endfacet
facet normal -9.138534517419849e-33 7.856068790846064e-18 -1.0
  outer loop
    vertex 37.723016432281234 -52.15577994110032 -2.255973186038318e-14
    vertex 41.723016432281455 0.844220058899785 -2.255973186038318e-14
    vertex 43.93083241817311 -52.2646889934844 -1.868227794687982e-14
  endloop
endfacet
facet normal -9.138534517419849e-33 7.856068790846064e-18 -1.0
  outer loop
    vertex 43.93083241817311 -52.2646889934844 -1.868227794687982e-14
    vertex 41.723016432281455 0.844220058899785 -2.255973186038318e-14
    vertex 43.93083241817311 -44.2646889934844 -1.868227794687982e-14
  endloop
endfacet
facet normal -9.138534517419849e-33 7.856068790846064e-18 -1.0
  outer loop
    vertex 94.72301643228182 -35.1557799411004 -2.255973186038318e-14
    vertex 43.93083241817311 -44.2646889934844 -1.868227794687982e-14
    vertex 41.723016432281455 0.844220058899785 -2.255973186038318e-14
  endloop
endfacet
facet normal -9.138534517419849e-33 7.856068790846064e-18 -1.0
  outer loop
    vertex 43.93083241817311 -44.2646889934844 -1.868227794687982e-14
    vertex 94.72301643228182 -35.1557799411004 -2.255973186038318e-14
    vertex 44.33077087497714 -44.27170545763885 -1.868227794687982e-14
  endloop
endfacet
facet normal -9.138534517419849e-33 7.856068790846064e-18 -1.0
  outer loop
    vertex 44.33077087497714 -44.27170545763885 -1.868227794687982e-14
    vertex 94.72301643228182 -35.1557799411004 -2.255973186038318e-14
    vertex 61.32815528914737 -44.56990518420326 -2.255973186038318e-14
  endloop
endfacet
facet normal -9.138534517419849e-33 7.856068790846064e-18 -1.0
  outer loop
    vertex 44.33077087497714 -44.27170545763885 -1.868227794687982e-14
    vertex 61.32815528914737 -44.56990518420326 -2.255973186038318e-14
    vertex 44.33077087497714 -52.27170545763885 -1.868227794687982e-14
  endloop
endfacet
facet normal -9.138534517419849e-33 7.856068790846064e-18 -1.0
  outer loop
    vertex 61.32815528914737 -44.56990518420326 -2.255973186038318e-14
    vertex 94.72301643228182 -35.1557799411004 -2.255973186038318e-14
    vertex 61.72809374595137 -44.576921648357704 -2.255973186038318e-14
  endloop
endfacet
facet normal -9.138534517419849e-33 7.856068790846064e-18 -1.0
  outer loop
    vertex 61.72809374595137 -44.576921648357704 -2.255973186038318e-14
    vertex 94.72301643228182 -35.1557799411004 -2.255973186038318e-14
    vertex 68.32707828321746 -46.69269330690624 -2.255973186038318e-14
  endloop
endfacet
facet normal -9.138534517419849e-33 7.856068790846064e-18 -1.0
  outer loop
    vertex 61.72809374595137 -44.576921648357704 -2.255973186038318e-14
    vertex 68.32707828321746 -46.69269330690624 -2.255973186038318e-14
    vertex 61.72809374595137 -52.576921648357704 -2.255973186038318e-14
  endloop
endfacet
facet normal -9.138534517419849e-33 7.856068790846064e-18 -1.0
  outer loop
    vertex 68.32707828321746 -46.69269330690624 -2.255973186038318e-14
    vertex 94.72301643228182 -35.1557799411004 -2.255973186038318e-14
    vertex 68.72701674002148 -46.6997097710607 -2.255973186038318e-14
  endloop
endfacet
facet normal -9.138534517419849e-33 7.856068790846064e-18 -1.0
  outer loop
    vertex 68.72701674002148 -46.6997097710607 -2.255973186038318e-14
    vertex 94.72301643228182 -35.1557799411004 -2.255973186038318e-14
    vertex 68.72701674002148 -52.6997097710607 -2.255973186038318e-14
  endloop
endfacet
facet normal -9.138534517419849e-33 7.856068790846064e-18 -1.0
  outer loop
    vertex 68.72701674002148 -52.6997097710607 -2.255973186038318e-14
    vertex 94.72301643228182 -35.1557799411004 -2.255973186038318e-14
    vertex 88.72393958022174 -47.05053297878352 -2.255973186038318e-14
  endloop
endfacet
facet normal -9.138534517419849e-33 7.856068790846064e-18 -1.0
  outer loop
    vertex 88.72393958022174 -47.05053297878352 -2.255973186038318e-14
    vertex 94.72301643228182 -35.1557799411004 -2.255973186038318e-14
    vertex 89.12393958022174 -47.05053297878352 -2.255973186038318e-14
  endloop
endfacet
facet normal -9.138534517419849e-33 7.856068790846064e-18 -1.0
  outer loop
    vertex 89.12393958022174 -47.05053297878352 -2.255973186038318e-14
    vertex 94.72301643228182 -35.1557799411004 -2.255973186038318e-14
    vertex 89.12393958022174 -53.05053297878352 -2.255973186038318e-14
  endloop
endfacet
facet normal -9.138534517419849e-33 7.856068790846064e-18 -1.0
  outer loop
    vertex 89.12393958022174 -53.05053297878352 -2.255973186038318e-14
    vertex 94.72301643228182 -35.1557799411004 -2.255973186038318e-14
    vertex 94.72301643228182 -53.15577994110036 -2.255973186038318e-14
  endloop
endfacet
facet normal -9.138534517419849e-33 7.856068790846064e-18 -1.0
  outer loop
    vertex 88.72393958022174 -53.05053297878352 -2.255973186038318e-14
    vertex 68.72701674002148 -52.6997097710607 -2.255973186038318e-14
    vertex 88.72393958022174 -47.05053297878352 -2.255973186038318e-14
  endloop
endfacet
facet normal -9.138534517419849e-33 7.856068790846064e-18 -1.0
  outer loop
    vertex 68.32707828321746 -52.69269330690624 -2.255973186038318e-14
    vertex 61.72809374595137 -52.576921648357704 -2.255973186038318e-14
    vertex 68.32707828321746 -46.69269330690624 -2.255973186038318e-14
  endloop
endfacet
facet normal -9.138534517419849e-33 7.856068790846064e-18 -1.0
  outer loop
    vertex 61.32815528914737 -52.56990518420325 -2.255973186038318e-14
    vertex 44.33077087497714 -52.27170545763885 -1.868227794687982e-14
    vertex 61.32815528914737 -44.56990518420326 -2.255973186038318e-14
  endloop
endfacet
facet normal -9.138534517419849e-33 7.856068790846064e-18 -1.0
  outer loop
    vertex 5.115261989585612 -52.27170545763885 -1.868227794687982e-14
    vertex -11.882122424584615 -52.56990518420325 -2.255973186038318e-14
    vertex 5.115261989585612 -44.27170545763885 -1.868227794687982e-14
  endloop
endfacet
facet normal -9.138534517419849e-33 7.856068790846064e-18 -1.0
  outer loop
    vertex -12.282060881388619 -52.576921648357704 -2.255973186038318e-14
    vertex -18.881045418654708 -52.69269330690624 -2.255973186038318e-14
    vertex -12.282060881388619 -44.576921648357704 -2.255973186038318e-14
  endloop
endfacet
facet normal -9.138534517419849e-33 7.856068790846064e-18 -1.0
  outer loop
    vertex -19.280983875458716 -52.6997097710607 -2.255973186038318e-14
    vertex -39.277906715658986 -53.05053297878352 -2.255973186038318e-14
    vertex -19.280983875458716 -46.6997097710607 -2.255973186038318e-14
  endloop
endfacet
facet normal -9.138534517419849e-33 7.856068790846064e-18 -1.0
  outer loop
    vertex -39.677906715658985 -53.05053297878352 -2.255973186038318e-14
    vertex -45.276983567719064 -53.15577994110036 -2.255973186038318e-14
    vertex -39.677906715658985 -47.05053297878352 -2.255973186038318e-14
  endloop
endfacet
facet normal 0.0 -1.0 0.0
  outer loop
    vertex 37.723016432281234 -52.15577994110032 0.9999999999999812
    vertex 11.723016432281508 -52.15577994110032 -2.255973186038318e-14
    vertex 37.723016432281234 -52.15577994110032 -2.255973186038318e-14
  endloop
endfacet
facet normal 0.0 -1.0 0.0
  outer loop
    vertex 11.723016432281508 -52.15577994110032 -2.255973186038318e-14
    vertex 37.723016432281234 -52.15577994110032 0.9999999999999812
    vertex 11.723016432281508 -52.15577994110032 0.9999999999999812
  endloop
endfacet
facet normal 0.018793879119988675 -0.9998233794564035 0.0
  outer loop
    vertex -39.677906715658985 -53.05053297878352 0.9999999999999812
    vertex -45.276983567719064 -53.15577994110036 -2.255973186038318e-14
    vertex -39.677906715658985 -53.05053297878352 -2.255973186038318e-14
  endloop
endfacet
facet normal 0.018793879119988675 -0.9998233794564035 0.0
  outer loop
    vertex -45.276983567719064 -53.15577994110036 -2.255973186038318e-14
    vertex -39.677906715658985 -53.05053297878352 0.9999999999999812
    vertex -45.276983567719064 -53.15577994110036 0.9999999999999812
  endloop
endfacet
facet normal -0.5618830355830332 0.8272166912750226 -3.144224977922742e-16
  outer loop
    vertex -45.276983567719064 -35.1557799411004 0.9999999999999756
    vertex 7.72301643228129 0.844220058899785 -2.255973186038318e-14
    vertex -45.276983567719064 -35.1557799411004 -2.255973186038318e-14
  endloop
endfacet
facet normal -0.5618830355830332 0.8272166912750226 -3.144224977922742e-16
  outer loop
    vertex 7.72301643228129 0.844220058899785 -2.255973186038318e-14
    vertex -45.276983567719064 -35.1557799411004 0.9999999999999756
    vertex 7.72301643228129 0.844220058899785 0.9999999999999812
  endloop
endfacet
facet normal -1.0 0.0 0.0
  outer loop
    vertex -39.277906715658986 -47.05053297878352 0.7999999999999813
    vertex -39.277906715658986 -53.05053297878352 -2.255973186038318e-14
    vertex -39.277906715658986 -53.05053297878352 0.7999999999999813
  endloop
endfacet
facet normal -1.0 0.0 0.0
  outer loop
    vertex -39.277906715658986 -53.05053297878352 -2.255973186038318e-14
    vertex -39.277906715658986 -47.05053297878352 0.7999999999999813
    vertex -39.277906715658986 -47.05053297878352 -2.255973186038318e-14
  endloop
endfacet
facet normal 1.0 0.0 0.0
  outer loop
    vertex -39.677906715658985 -47.05053297878352 -2.255973186038318e-14
    vertex -39.677906715658985 -53.05053297878352 0.9999999999999812
    vertex -39.677906715658985 -53.05053297878352 -2.255973186038318e-14
  endloop
endfacet
facet normal 1.0 0.0 0.0
  outer loop
    vertex -39.677906715658985 -53.05053297878352 0.9999999999999812
    vertex -39.677906715658985 -47.05053297878352 -2.255973186038318e-14
    vertex -39.677906715658985 -47.05053297878352 0.9999999999999812
  endloop
endfacet
facet normal 0.017541160386141345 -0.9998461420100134 0.0
  outer loop
    vertex -19.280983875458716 -52.6997097710607 0.7999999999999813
    vertex -39.277906715658986 -53.05053297878352 -2.255973186038318e-14
    vertex -19.280983875458716 -52.6997097710607 -2.255973186038318e-14
  endloop
endfacet
facet normal 0.017541160386141345 -0.9998461420100134 0.0
  outer loop
    vertex -39.277906715658986 -53.05053297878352 -2.255973186038318e-14
    vertex -19.280983875458716 -52.6997097710607 0.7999999999999813
    vertex -39.277906715658986 -53.05053297878352 0.7999999999999813
  endloop
endfacet
facet normal -1.0 0.0 0.0
  outer loop
    vertex -18.881045418654708 -46.69269330690624 0.9999999999999812
    vertex -18.881045418654708 -52.69269330690624 -2.255973186038318e-14
    vertex -18.881045418654708 -52.69269330690624 0.9999999999999812
  endloop
endfacet
facet normal -1.0 0.0 0.0
  outer loop
    vertex -18.881045418654708 -52.69269330690624 -2.255973186038318e-14
    vertex -18.881045418654708 -46.69269330690624 0.9999999999999812
    vertex -18.881045418654708 -46.69269330690624 -2.255973186038318e-14
  endloop
endfacet
facet normal 1.0 0.0 0.0
  outer loop
    vertex -19.280983875458716 -46.6997097710607 -2.255973186038318e-14
    vertex -19.280983875458716 -52.6997097710607 0.7999999999999813
    vertex -19.280983875458716 -52.6997097710607 -2.255973186038318e-14
  endloop
endfacet
facet normal 1.0 0.0 0.0
  outer loop
    vertex -19.280983875458716 -52.6997097710607 0.7999999999999813
    vertex -19.280983875458716 -46.6997097710607 -2.255973186038318e-14
    vertex -19.280983875458716 -46.6997097710607 0.7999999999999813
  endloop
endfacet
facet normal 0.017541160386142594 -0.9998461420100132 0.0
  outer loop
    vertex -12.282060881388619 -52.576921648357704 0.9999999999999812
    vertex -18.881045418654708 -52.69269330690624 -2.255973186038318e-14
    vertex -12.282060881388619 -52.576921648357704 -2.255973186038318e-14
  endloop
endfacet
facet normal 0.017541160386142594 -0.9998461420100132 0.0
  outer loop
    vertex -18.881045418654708 -52.69269330690624 -2.255973186038318e-14
    vertex -12.282060881388619 -52.576921648357704 0.9999999999999812
    vertex -18.881045418654708 -52.69269330690624 0.9999999999999812
  endloop
endfacet
facet normal 0.0 0.0 1.0
  outer loop
    vertex -19.280983875458716 -52.6997097710607 0.7999999999999813
    vertex -39.277906715658986 -47.05053297878352 0.7999999999999813
    vertex -39.277906715658986 -53.05053297878352 0.7999999999999813
  endloop
endfacet
facet normal 0.0 0.0 1.0
  outer loop
    vertex -39.277906715658986 -47.05053297878352 0.7999999999999813
    vertex -19.280983875458716 -52.6997097710607 0.7999999999999813
    vertex -19.280983875458716 -46.6997097710607 0.7999999999999813
  endloop
endfacet
facet normal -0.0 -1.0 -0.0
  outer loop
    vertex -39.277906715658986 -47.05053297878352 0.7999999999999813
    vertex -39.677906715658985 -47.05053297878352 -2.255973186038318e-14
    vertex -39.277906715658986 -47.05053297878352 -2.255973186038318e-14
  endloop
endfacet
facet normal -0.0 -1.0 -0.0
  outer loop
    vertex -39.677906715658985 -47.05053297878352 -2.255973186038318e-14
    vertex -39.277906715658986 -47.05053297878352 0.7999999999999813
    vertex -39.677906715658985 -47.05053297878352 0.9999999999999812
  endloop
endfacet
facet normal -0.0 -1.0 -0.0
  outer loop
    vertex -39.677906715658985 -47.05053297878352 0.9999999999999812
    vertex -39.277906715658986 -47.05053297878352 0.7999999999999813
    vertex -39.277906715658986 -47.05053297878352 0.9999999999999812
  endloop
endfacet
facet normal 0.017541160386141258 -0.9998461420100134 4.632336294175383e-16
  outer loop
    vertex -18.881045418654708 -46.69269330690624 0.9999999999999812
    vertex -19.280983875458716 -46.6997097710607 -2.255973186038318e-14
    vertex -18.881045418654708 -46.69269330690624 -2.255973186038318e-14
  endloop
endfacet
facet normal 0.017541160386141258 -0.9998461420100134 4.632336294175383e-16
  outer loop
    vertex -19.280983875458716 -46.6997097710607 -2.255973186038318e-14
    vertex -18.881045418654708 -46.69269330690624 0.9999999999999812
    vertex -19.280983875458716 -46.6997097710607 0.7999999999999813
  endloop
endfacet
facet normal 0.017541160386141258 -0.9998461420100134 4.632336294175383e-16
  outer loop
    vertex -19.280983875458716 -46.6997097710607 0.7999999999999813
    vertex -18.881045418654708 -46.69269330690624 0.9999999999999812
    vertex -39.277906715658986 -47.05053297878352 0.7999999999999813
  endloop
endfacet
facet normal 0.017541160386141258 -0.9998461420100134 4.632336294175383e-16
  outer loop
    vertex -39.277906715658986 -47.05053297878352 0.7999999999999813
    vertex -18.881045418654708 -46.69269330690624 0.9999999999999812
    vertex -39.277906715658986 -47.05053297878352 0.9999999999999812
  endloop
endfacet
facet normal -1.0 0.0 0.0
  outer loop
    vertex -11.882122424584615 -44.56990518420326 0.7999999999999813
    vertex -11.882122424584615 -52.56990518420325 -2.255973186038318e-14
    vertex -11.882122424584615 -52.56990518420325 0.7999999999999813
  endloop
endfacet
facet normal -1.0 0.0 0.0
  outer loop
    vertex -11.882122424584615 -52.56990518420325 -2.255973186038318e-14
    vertex -11.882122424584615 -44.56990518420326 0.7999999999999813
    vertex -11.882122424584615 -44.56990518420326 -2.255973186038318e-14
  endloop
endfacet
facet normal 1.0 0.0 0.0
  outer loop
    vertex -12.282060881388619 -44.576921648357704 -2.255973186038318e-14
    vertex -12.282060881388619 -52.576921648357704 0.9999999999999812
    vertex -12.282060881388619 -52.576921648357704 -2.255973186038318e-14
  endloop
endfacet
facet normal 1.0 0.0 0.0
  outer loop
    vertex -12.282060881388619 -52.576921648357704 0.9999999999999812
    vertex -12.282060881388619 -44.576921648357704 -2.255973186038318e-14
    vertex -12.282060881388619 -44.576921648357704 0.9999999999999812
  endloop
endfacet
facet normal 0.01754116038614124 -0.9998461420100134 -2.1472077925328918e-18
  outer loop
    vertex 5.115261989585612 -52.27170545763885 -1.868227794687982e-14
    vertex -11.882122424584615 -52.56990518420325 0.7999999999999813
    vertex -11.882122424584615 -52.56990518420325 -2.255973186038318e-14
  endloop
endfacet
facet normal 0.01754116038614124 -0.9998461420100134 -2.1472077925328918e-18
  outer loop
    vertex -11.882122424584615 -52.56990518420325 0.7999999999999813
    vertex 5.115261989585612 -52.27170545763885 -1.868227794687982e-14
    vertex 5.115261989585612 -52.27170545763885 0.7999999999999813
  endloop
endfacet
facet normal -1.0 0.0 0.0
  outer loop
    vertex 5.515200446389621 -44.2646889934844 0.9999999999999812
    vertex 5.515200446389621 -52.2646889934844 -1.868227794687982e-14
    vertex 5.515200446389621 -52.2646889934844 0.9999999999999812
  endloop
endfacet
facet normal -1.0 0.0 0.0
  outer loop
    vertex 5.515200446389621 -52.2646889934844 -1.868227794687982e-14
    vertex 5.515200446389621 -44.2646889934844 0.9999999999999812
    vertex 5.515200446389621 -44.2646889934844 -1.868227794687982e-14
  endloop
endfacet
facet normal 1.0 0.0 0.0
  outer loop
    vertex 5.115261989585612 -44.27170545763885 -1.868227794687982e-14
    vertex 5.115261989585612 -52.27170545763885 0.7999999999999813
    vertex 5.115261989585612 -52.27170545763885 -1.868227794687982e-14
  endloop
endfacet
facet normal 1.0 0.0 0.0
  outer loop
    vertex 5.115261989585612 -52.27170545763885 0.7999999999999813
    vertex 5.115261989585612 -44.27170545763885 -1.868227794687982e-14
    vertex 5.115261989585612 -44.27170545763885 0.7999999999999813
  endloop
endfacet
facet normal 0.01754116038614204 -0.9998461420100132 1.2269758814524606e-18
  outer loop
    vertex 11.723016432281508 -52.15577994110032 0.9999999999999812
    vertex 5.515200446389621 -52.2646889934844 -1.868227794687982e-14
    vertex 11.723016432281508 -52.15577994110032 -2.255973186038318e-14
  endloop
endfacet
facet normal 0.01754116038614204 -0.9998461420100132 1.2269758814524606e-18
  outer loop
    vertex 5.515200446389621 -52.2646889934844 -1.868227794687982e-14
    vertex 11.723016432281508 -52.15577994110032 0.9999999999999812
    vertex 5.515200446389621 -52.2646889934844 0.9999999999999812
  endloop
endfacet
facet normal 0.0 0.0 1.0
  outer loop
    vertex 5.115261989585612 -52.27170545763885 0.7999999999999813
    vertex -11.882122424584615 -44.56990518420326 0.7999999999999813
    vertex -11.882122424584615 -52.56990518420325 0.7999999999999813
  endloop
endfacet
facet normal 0.0 0.0 1.0
  outer loop
    vertex -11.882122424584615 -44.56990518420326 0.7999999999999813
    vertex 5.115261989585612 -52.27170545763885 0.7999999999999813
    vertex 5.115261989585612 -44.27170545763885 0.7999999999999813
  endloop
endfacet
facet normal 0.017541160386141015 -0.9998461420100134 4.910936187136323e-16
  outer loop
    vertex 5.515200446389621 -44.2646889934844 0.9999999999999812
    vertex 5.115261989585612 -44.27170545763885 -1.868227794687982e-14
    vertex 5.515200446389621 -44.2646889934844 -1.868227794687982e-14
  endloop
endfacet
facet normal 0.017541160386141015 -0.9998461420100134 4.910936187136323e-16
  outer loop
    vertex 5.115261989585612 -44.27170545763885 -1.868227794687982e-14
    vertex 5.515200446389621 -44.2646889934844 0.9999999999999812
    vertex 5.115261989585612 -44.27170545763885 0.7999999999999813
  endloop
endfacet
facet normal 0.017541160386141015 -0.9998461420100134 4.910936187136323e-16
  outer loop
    vertex 5.115261989585612 -44.27170545763885 0.7999999999999813
    vertex 5.515200446389621 -44.2646889934844 0.9999999999999812
    vertex -11.882122424584615 -44.56990518420326 0.7999999999999813
  endloop
endfacet
facet normal 0.017541160386141015 -0.9998461420100134 4.910936187136323e-16
  outer loop
    vertex -11.882122424584615 -44.56990518420326 0.7999999999999813
    vertex -12.282060881388619 -44.576921648357704 -2.255973186038318e-14
    vertex -11.882122424584615 -44.56990518420326 -2.255973186038318e-14
  endloop
endfacet
facet normal 0.017541160386141015 -0.9998461420100134 4.910936187136323e-16
  outer loop
    vertex -12.282060881388619 -44.576921648357704 -2.255973186038318e-14
    vertex -11.882122424584615 -44.56990518420326 0.7999999999999813
    vertex -12.282060881388619 -44.576921648357704 0.9999999999999812
  endloop
endfacet
facet normal 0.017541160386141015 -0.9998461420100134 4.910936187136323e-16
  outer loop
    vertex -12.282060881388619 -44.576921648357704 0.9999999999999812
    vertex -11.882122424584615 -44.56990518420326 0.7999999999999813
    vertex 5.515200446389621 -44.2646889934844 0.9999999999999812
  endloop
endfacet
facet normal 3.4160185309153475e-33 1.2694579968380573e-17 1.0
  outer loop
    vertex -12.282060881388619 -52.576921648357704 0.9999999999999812
    vertex -18.881045418654708 -46.69269330690624 0.9999999999999812
    vertex -18.881045418654708 -52.69269330690624 0.9999999999999812
  endloop
endfacet
facet normal 3.4160185309153475e-33 1.2694579968380573e-17 1.0
  outer loop
    vertex 68.32707828321746 -52.69269330690624 0.9999999999999812
    vertex 61.72809374595137 -44.576921648357704 0.9999999999999812
    vertex 61.72809374595137 -52.576921648357704 0.9999999999999812
  endloop
endfacet
facet normal 3.4160185309153475e-33 1.2694579968380573e-17 1.0
  outer loop
    vertex 94.72301643228182 -53.15577994110036 0.9999999999999812
    vertex 89.12393958022174 -47.05053297878352 0.9999999999999812
    vertex 89.12393958022174 -53.05053297878352 0.9999999999999812
  endloop
endfacet
facet normal 3.4160185309153475e-33 1.2694579968380573e-17 1.0
  outer loop
    vertex 11.723016432281508 -52.15577994110032 0.9999999999999812
    vertex 5.515200446389621 -44.2646889934844 0.9999999999999812
    vertex 5.515200446389621 -52.2646889934844 0.9999999999999812
  endloop
endfacet
facet normal 3.4160185309153475e-33 1.2694579968380573e-17 1.0
  outer loop
    vertex 5.515200446389621 -44.2646889934844 0.9999999999999812
    vertex 11.723016432281508 -52.15577994110032 0.9999999999999812
    vertex 7.72301643228129 0.844220058899785 0.9999999999999812
  endloop
endfacet
facet normal 3.4160185309153475e-33 1.2694579968380573e-17 1.0
  outer loop
    vertex 7.72301643228129 0.844220058899785 0.9999999999999812
    vertex 11.723016432281508 -52.15577994110032 0.9999999999999812
    vertex 41.723016432281455 0.844220058899785 0.9999999999999812
  endloop
endfacet
facet normal 3.4160185309153475e-33 1.2694579968380573e-17 1.0
  outer loop
    vertex 41.723016432281455 0.844220058899785 0.9999999999999812
    vertex 11.723016432281508 -52.15577994110032 0.9999999999999812
    vertex 37.723016432281234 -52.15577994110032 0.9999999999999812
  endloop
endfacet
facet normal 3.4160185309153475e-33 1.2694579968380573e-17 1.0
  outer loop
    vertex 41.723016432281455 0.844220058899785 0.9999999999999812
    vertex 37.723016432281234 -52.15577994110032 0.9999999999999812
    vertex 43.93083241817311 -52.2646889934844 0.9999999999999812
  endloop
endfacet
facet normal 3.4160185309153475e-33 1.2694579968380573e-17 1.0
  outer loop
    vertex 41.723016432281455 0.844220058899785 0.9999999999999812
    vertex 43.93083241817311 -52.2646889934844 0.9999999999999812
    vertex 43.93083241817311 -44.2646889934844 0.9999999999999812
  endloop
endfacet
facet normal 3.4160185309153475e-33 1.2694579968380573e-17 1.0
  outer loop
    vertex 41.723016432281455 0.844220058899785 0.9999999999999812
    vertex 43.93083241817311 -44.2646889934844 0.9999999999999812
    vertex 94.72301643228182 -35.1557799411004 0.9999999999999756
  endloop
endfacet
facet normal 3.4160185309153475e-33 1.2694579968380573e-17 1.0
  outer loop
    vertex 94.72301643228182 -35.1557799411004 0.9999999999999756
    vertex 43.93083241817311 -44.2646889934844 0.9999999999999812
    vertex 61.72809374595137 -44.576921648357704 0.9999999999999812
  endloop
endfacet
facet normal 3.4160185309153475e-33 1.2694579968380573e-17 1.0
  outer loop
    vertex 94.72301643228182 -35.1557799411004 0.9999999999999756
    vertex 61.72809374595137 -44.576921648357704 0.9999999999999812
    vertex 68.32707828321746 -46.69269330690624 0.9999999999999812
  endloop
endfacet
facet normal 3.4160185309153475e-33 1.2694579968380573e-17 1.0
  outer loop
    vertex 68.32707828321746 -46.69269330690624 0.9999999999999812
    vertex 61.72809374595137 -44.576921648357704 0.9999999999999812
    vertex 68.32707828321746 -52.69269330690624 0.9999999999999812
  endloop
endfacet
facet normal 3.4160185309153475e-33 1.2694579968380573e-17 1.0
  outer loop
    vertex 94.72301643228182 -35.1557799411004 0.9999999999999756
    vertex 68.32707828321746 -46.69269330690624 0.9999999999999812
    vertex 88.72393958022174 -47.05053297878352 0.9999999999999812
  endloop
endfacet
facet normal 3.4160185309153475e-33 1.2694579968380573e-17 1.0
  outer loop
    vertex 94.72301643228182 -35.1557799411004 0.9999999999999756
    vertex 88.72393958022174 -47.05053297878352 0.9999999999999812
    vertex 89.12393958022174 -47.05053297878352 0.9999999999999812
  endloop
endfacet
facet normal 3.4160185309153475e-33 1.2694579968380573e-17 1.0
  outer loop
    vertex 94.72301643228182 -35.1557799411004 0.9999999999999756
    vertex 89.12393958022174 -47.05053297878352 0.9999999999999812
    vertex 94.72301643228182 -53.15577994110036 0.9999999999999812
  endloop
endfacet
facet normal 3.4160185309153475e-33 1.2694579968380573e-17 1.0
  outer loop
    vertex -39.677906715658985 -53.05053297878352 0.9999999999999812
    vertex -45.276983567719064 -35.1557799411004 0.9999999999999756
    vertex -45.276983567719064 -53.15577994110036 0.9999999999999812
  endloop
endfacet
facet normal 3.4160185309153475e-33 1.2694579968380573e-17 1.0
  outer loop
    vertex -45.276983567719064 -35.1557799411004 0.9999999999999756
    vertex -39.677906715658985 -53.05053297878352 0.9999999999999812
    vertex -39.677906715658985 -47.05053297878352 0.9999999999999812
  endloop
endfacet
facet normal 3.4160185309153475e-33 1.2694579968380573e-17 1.0
  outer loop
    vertex -45.276983567719064 -35.1557799411004 0.9999999999999756
    vertex -39.677906715658985 -47.05053297878352 0.9999999999999812
    vertex 7.72301643228129 0.844220058899785 0.9999999999999812
  endloop
endfacet
facet normal 3.4160185309153475e-33 1.2694579968380573e-17 1.0
  outer loop
    vertex 7.72301643228129 0.844220058899785 0.9999999999999812
    vertex -39.677906715658985 -47.05053297878352 0.9999999999999812
    vertex -39.277906715658986 -47.05053297878352 0.9999999999999812
  endloop
endfacet
facet normal 3.4160185309153475e-33 1.2694579968380573e-17 1.0
  outer loop
    vertex 7.72301643228129 0.844220058899785 0.9999999999999812
    vertex -39.277906715658986 -47.05053297878352 0.9999999999999812
    vertex -18.881045418654708 -46.69269330690624 0.9999999999999812
  endloop
endfacet
facet normal 3.4160185309153475e-33 1.2694579968380573e-17 1.0
  outer loop
    vertex 7.72301643228129 0.844220058899785 0.9999999999999812
    vertex -18.881045418654708 -46.69269330690624 0.9999999999999812
    vertex -12.282060881388619 -44.576921648357704 0.9999999999999812
  endloop
endfacet
facet normal 3.4160185309153475e-33 1.2694579968380573e-17 1.0
  outer loop
    vertex -12.282060881388619 -44.576921648357704 0.9999999999999812
    vertex -18.881045418654708 -46.69269330690624 0.9999999999999812
    vertex -12.282060881388619 -52.576921648357704 0.9999999999999812
  endloop
endfacet
facet normal 3.4160185309153475e-33 1.2694579968380573e-17 1.0
  outer loop
    vertex 7.72301643228129 0.844220058899785 0.9999999999999812
    vertex -12.282060881388619 -44.576921648357704 0.9999999999999812
    vertex 5.515200446389621 -44.2646889934844 0.9999999999999812
  endloop
endfacet
facet normal -0.017541160386142594 -0.9998461420100132 0.0
  outer loop
    vertex 68.32707828321746 -52.69269330690624 0.9999999999999812
    vertex 61.72809374595137 -52.576921648357704 -2.255973186038318e-14
    vertex 68.32707828321746 -52.69269330690624 -2.255973186038318e-14
  endloop
endfacet
facet normal -0.017541160386142594 -0.9998461420100132 0.0
  outer loop
    vertex 61.72809374595137 -52.576921648357704 -2.255973186038318e-14
    vertex 68.32707828321746 -52.69269330690624 0.9999999999999812
    vertex 61.72809374595137 -52.576921648357704 0.9999999999999812
  endloop
endfacet
facet normal 1.0 0.0 0.0
  outer loop
    vertex 61.32815528914737 -44.56990518420326 -2.255973186038318e-14
    vertex 61.32815528914737 -52.56990518420325 0.7999999999999813
    vertex 61.32815528914737 -52.56990518420325 -2.255973186038318e-14
  endloop
endfacet
facet normal 1.0 0.0 0.0
  outer loop
    vertex 61.32815528914737 -52.56990518420325 0.7999999999999813
    vertex 61.32815528914737 -44.56990518420326 -2.255973186038318e-14
    vertex 61.32815528914737 -44.56990518420326 0.7999999999999813
  endloop
endfacet
facet normal 0.0 0.0 1.0
  outer loop
    vertex 61.32815528914737 -52.56990518420325 0.7999999999999813
    vertex 44.33077087497714 -44.27170545763885 0.7999999999999813
    vertex 44.33077087497714 -52.27170545763885 0.7999999999999813
  endloop
endfacet
facet normal 0.0 0.0 1.0
  outer loop
    vertex 44.33077087497714 -44.27170545763885 0.7999999999999813
    vertex 61.32815528914737 -52.56990518420325 0.7999999999999813
    vertex 61.32815528914737 -44.56990518420326 0.7999999999999813
  endloop
endfacet
facet normal -0.018793879119988675 -0.9998233794564035 0.0
  outer loop
    vertex 94.72301643228182 -53.15577994110036 0.9999999999999812
    vertex 89.12393958022174 -53.05053297878352 -2.255973186038318e-14
    vertex 94.72301643228182 -53.15577994110036 -2.255973186038318e-14
  endloop
endfacet
facet normal -0.018793879119988675 -0.9998233794564035 0.0
  outer loop
    vertex 89.12393958022174 -53.05053297878352 -2.255973186038318e-14
    vertex 94.72301643228182 -53.15577994110036 0.9999999999999812
    vertex 89.12393958022174 -53.05053297878352 0.9999999999999812
  endloop
endfacet
facet normal -0.017541160386141348 -0.9998461420100134 0.0
  outer loop
    vertex 88.72393958022174 -53.05053297878352 0.7999999999999813
    vertex 68.72701674002148 -52.6997097710607 -2.255973186038318e-14
    vertex 88.72393958022174 -53.05053297878352 -2.255973186038318e-14
  endloop
endfacet
facet normal -0.017541160386141348 -0.9998461420100134 0.0
  outer loop
    vertex 68.72701674002148 -52.6997097710607 -2.255973186038318e-14
    vertex 88.72393958022174 -53.05053297878352 0.7999999999999813
    vertex 68.72701674002148 -52.6997097710607 0.7999999999999813
  endloop
endfacet
facet normal 1.0 0.0 0.0
  outer loop
    vertex 68.32707828321746 -46.69269330690624 -2.255973186038318e-14
    vertex 68.32707828321746 -52.69269330690624 0.9999999999999812
    vertex 68.32707828321746 -52.69269330690624 -2.255973186038318e-14
  endloop
endfacet
facet normal 1.0 0.0 0.0
  outer loop
    vertex 68.32707828321746 -52.69269330690624 0.9999999999999812
    vertex 68.32707828321746 -46.69269330690624 -2.255973186038318e-14
    vertex 68.32707828321746 -46.69269330690624 0.9999999999999812
  endloop
endfacet
facet normal -1.0 0.0 0.0
  outer loop
    vertex 89.12393958022174 -47.05053297878352 0.9999999999999812
    vertex 89.12393958022174 -53.05053297878352 -2.255973186038318e-14
    vertex 89.12393958022174 -53.05053297878352 0.9999999999999812
  endloop
endfacet
facet normal -1.0 0.0 0.0
  outer loop
    vertex 89.12393958022174 -53.05053297878352 -2.255973186038318e-14
    vertex 89.12393958022174 -47.05053297878352 0.9999999999999812
    vertex 89.12393958022174 -47.05053297878352 -2.255973186038318e-14
  endloop
endfacet
facet normal -0.017541160386141213 -0.9998461420100134 -6.328326656577373e-16
  outer loop
    vertex 88.72393958022174 -47.05053297878352 0.9999999999999812
    vertex 68.72701674002148 -46.6997097710607 0.7999999999999813
    vertex 88.72393958022174 -47.05053297878352 0.7999999999999813
  endloop
endfacet
facet normal -0.017541160386141213 -0.9998461420100134 -6.328326656577373e-16
  outer loop
    vertex 68.72701674002148 -46.6997097710607 0.7999999999999813
    vertex 68.32707828321746 -46.69269330690624 -2.255973186038318e-14
    vertex 68.72701674002148 -46.6997097710607 -2.255973186038318e-14
  endloop
endfacet
facet normal -0.017541160386141213 -0.9998461420100134 -6.328326656577373e-16
  outer loop
    vertex 68.32707828321746 -46.69269330690624 -2.255973186038318e-14
    vertex 68.72701674002148 -46.6997097710607 0.7999999999999813
    vertex 68.32707828321746 -46.69269330690624 0.9999999999999812
  endloop
endfacet
facet normal -0.017541160386141213 -0.9998461420100134 -6.328326656577373e-16
  outer loop
    vertex 68.32707828321746 -46.69269330690624 0.9999999999999812
    vertex 68.72701674002148 -46.6997097710607 0.7999999999999813
    vertex 88.72393958022174 -47.05053297878352 0.9999999999999812
  endloop
endfacet
facet normal 0.0 0.0 1.0
  outer loop
    vertex 88.72393958022174 -53.05053297878352 0.7999999999999813
    vertex 68.72701674002148 -46.6997097710607 0.7999999999999813
    vertex 68.72701674002148 -52.6997097710607 0.7999999999999813
  endloop
endfacet
facet normal 0.0 0.0 1.0
  outer loop
    vertex 68.72701674002148 -46.6997097710607 0.7999999999999813
    vertex 88.72393958022174 -53.05053297878352 0.7999999999999813
    vertex 88.72393958022174 -47.05053297878352 0.7999999999999813
  endloop
endfacet
facet normal -0.017541160386142077 -0.9998461420100132 1.2269758814529208e-18
  outer loop
    vertex 43.93083241817311 -52.2646889934844 -1.868227794687982e-14
    vertex 37.723016432281234 -52.15577994110032 0.9999999999999812
    vertex 37.723016432281234 -52.15577994110032 -2.255973186038318e-14
  endloop
endfacet
facet normal -0.017541160386142077 -0.9998461420100132 1.2269758814529208e-18
  outer loop
    vertex 37.723016432281234 -52.15577994110032 0.9999999999999812
    vertex 43.93083241817311 -52.2646889934844 -1.868227794687982e-14
    vertex 43.93083241817311 -52.2646889934844 0.9999999999999812
  endloop
endfacet
facet normal 0.0 -1.0 0.0
  outer loop
    vertex 89.12393958022174 -47.05053297878352 0.9999999999999812
    vertex 88.72393958022174 -47.05053297878352 -2.255973186038318e-14
    vertex 89.12393958022174 -47.05053297878352 -2.255973186038318e-14
  endloop
endfacet
facet normal 0.0 -1.0 0.0
  outer loop
    vertex 88.72393958022174 -47.05053297878352 -2.255973186038318e-14
    vertex 89.12393958022174 -47.05053297878352 0.9999999999999812
    vertex 88.72393958022174 -47.05053297878352 0.7999999999999813
  endloop
endfacet
facet normal 0.0 -1.0 0.0
  outer loop
    vertex 88.72393958022174 -47.05053297878352 0.7999999999999813
    vertex 89.12393958022174 -47.05053297878352 0.9999999999999812
    vertex 88.72393958022174 -47.05053297878352 0.9999999999999812
  endloop
endfacet
facet normal -0.017541160386140967 -0.9998461420100134 -4.000606601367113e-17
  outer loop
    vertex 61.72809374595137 -44.576921648357704 0.9999999999999812
    vertex 61.32815528914737 -44.56990518420326 -2.255973186038318e-14
    vertex 61.72809374595137 -44.576921648357704 -2.255973186038318e-14
  endloop
endfacet
facet normal -0.017541160386140967 -0.9998461420100134 -4.000606601367113e-17
  outer loop
    vertex 61.32815528914737 -44.56990518420326 -2.255973186038318e-14
    vertex 61.72809374595137 -44.576921648357704 0.9999999999999812
    vertex 61.32815528914737 -44.56990518420326 0.7999999999999813
  endloop
endfacet
facet normal -0.017541160386140967 -0.9998461420100134 -4.000606601367113e-17
  outer loop
    vertex 61.32815528914737 -44.56990518420326 0.7999999999999813
    vertex 61.72809374595137 -44.576921648357704 0.9999999999999812
    vertex 44.33077087497714 -44.27170545763885 0.7999999999999813
  endloop
endfacet
facet normal -0.017541160386140967 -0.9998461420100134 -4.000606601367113e-17
  outer loop
    vertex 44.33077087497714 -44.27170545763885 0.7999999999999813
    vertex 43.93083241817311 -44.2646889934844 -1.868227794687982e-14
    vertex 44.33077087497714 -44.27170545763885 -1.868227794687982e-14
  endloop
endfacet
facet normal -0.017541160386140967 -0.9998461420100134 -4.000606601367113e-17
  outer loop
    vertex 43.93083241817311 -44.2646889934844 -1.868227794687982e-14
    vertex 44.33077087497714 -44.27170545763885 0.7999999999999813
    vertex 43.93083241817311 -44.2646889934844 0.9999999999999812
  endloop
endfacet
facet normal -0.017541160386140967 -0.9998461420100134 -4.000606601367113e-17
  outer loop
    vertex 43.93083241817311 -44.2646889934844 0.9999999999999812
    vertex 44.33077087497714 -44.27170545763885 0.7999999999999813
    vertex 61.72809374595137 -44.576921648357704 0.9999999999999812
  endloop
endfacet
facet normal -0.017541160386141223 -0.9998461420100134 1.0304680254205884e-17
  outer loop
    vertex 61.32815528914737 -52.56990518420325 0.7999999999999813
    vertex 44.33077087497714 -52.27170545763885 -1.868227794687982e-14
    vertex 61.32815528914737 -52.56990518420325 -2.255973186038318e-14
  endloop
endfacet
facet normal -0.017541160386141223 -0.9998461420100134 1.0304680254205884e-17
  outer loop
    vertex 44.33077087497714 -52.27170545763885 -1.868227794687982e-14
    vertex 61.32815528914737 -52.56990518420325 0.7999999999999813
    vertex 44.33077087497714 -52.27170545763885 0.7999999999999813
  endloop
endfacet
facet normal 1.0 0.0 0.0
  outer loop
    vertex 94.72301643228182 -35.1557799411004 -2.255973186038318e-14
    vertex 94.72301643228182 -53.15577994110036 0.9999999999999812
    vertex 94.72301643228182 -53.15577994110036 -2.255973186038318e-14
  endloop
endfacet
facet normal 1.0 0.0 0.0
  outer loop
    vertex 94.72301643228182 -53.15577994110036 0.9999999999999812
    vertex 94.72301643228182 -35.1557799411004 -2.255973186038318e-14
    vertex 94.72301643228182 -35.1557799411004 0.9999999999999756
  endloop
endfacet
facet normal 1.0 0.0 0.0
  outer loop
    vertex 43.93083241817311 -44.2646889934844 -1.868227794687982e-14
    vertex 43.93083241817311 -52.2646889934844 0.9999999999999812
    vertex 43.93083241817311 -52.2646889934844 -1.868227794687982e-14
  endloop
endfacet
facet normal 1.0 0.0 0.0
  outer loop
    vertex 43.93083241817311 -52.2646889934844 0.9999999999999812
    vertex 43.93083241817311 -44.2646889934844 -1.868227794687982e-14
    vertex 43.93083241817311 -44.2646889934844 0.9999999999999812
  endloop
endfacet
facet normal -1.0 0.0 0.0
  outer loop
    vertex 44.33077087497714 -44.27170545763885 0.7999999999999813
    vertex 44.33077087497714 -52.27170545763885 -1.868227794687982e-14
    vertex 44.33077087497714 -52.27170545763885 0.7999999999999813
  endloop
endfacet
facet normal -1.0 0.0 0.0
  outer loop
    vertex 44.33077087497714 -52.27170545763885 -1.868227794687982e-14
    vertex 44.33077087497714 -44.27170545763885 0.7999999999999813
    vertex 44.33077087497714 -44.27170545763885 -1.868227794687982e-14
  endloop
endfacet
facet normal -1.0 0.0 0.0
  outer loop
    vertex 68.72701674002148 -46.6997097710607 0.7999999999999813
    vertex 68.72701674002148 -52.6997097710607 -2.255973186038318e-14
    vertex 68.72701674002148 -52.6997097710607 0.7999999999999813
  endloop
endfacet
facet normal -1.0 0.0 0.0
  outer loop
    vertex 68.72701674002148 -52.6997097710607 -2.255973186038318e-14
    vertex 68.72701674002148 -46.6997097710607 0.7999999999999813
    vertex 68.72701674002148 -46.6997097710607 -2.255973186038318e-14
  endloop
endfacet
facet normal -1.0 0.0 0.0
  outer loop
    vertex 61.72809374595137 -44.576921648357704 0.9999999999999812
    vertex 61.72809374595137 -52.576921648357704 -2.255973186038318e-14
    vertex 61.72809374595137 -52.576921648357704 0.9999999999999812
  endloop
endfacet
facet normal -1.0 0.0 0.0
  outer loop
    vertex 61.72809374595137 -52.576921648357704 -2.255973186038318e-14
    vertex 61.72809374595137 -44.576921648357704 0.9999999999999812
    vertex 61.72809374595137 -44.576921648357704 -2.255973186038318e-14
  endloop
endfacet
facet normal 0.561883035583033 0.8272166912750226 -3.1442249779231017e-16
  outer loop
    vertex 41.723016432281455 0.844220058899785 0.9999999999999812
    vertex 94.72301643228182 -35.1557799411004 -2.255973186038318e-14
    vertex 41.723016432281455 0.844220058899785 -2.255973186038318e-14
  endloop
endfacet
facet normal 0.561883035583033 0.8272166912750226 -3.1442249779231017e-16
  outer loop
    vertex 94.72301643228182 -35.1557799411004 -2.255973186038318e-14
    vertex 41.723016432281455 0.844220058899785 0.9999999999999812
    vertex 94.72301643228182 -35.1557799411004 0.9999999999999756
  endloop
endfacet
facet normal 1.0 0.0 0.0
  outer loop
    vertex 88.72393958022174 -47.05053297878352 -2.255973186038318e-14
    vertex 88.72393958022174 -53.05053297878352 0.7999999999999813
    vertex 88.72393958022174 -53.05053297878352 -2.255973186038318e-14
  endloop
endfacet
facet normal 1.0 0.0 0.0
  outer loop
    vertex 88.72393958022174 -53.05053297878352 0.7999999999999813
    vertex 88.72393958022174 -47.05053297878352 -2.255973186038318e-14
    vertex 88.72393958022174 -47.05053297878352 0.7999999999999813
  endloop
endfacet
endsolid f-16 3d
