solid f-16 3d
facet normal 1.0 3.8337583103680977e-14 -1.0942173156914442e-15
  outer loop
    vertex 17.999999999999968 4.999999999999188 84.99999999999999
    vertex 18.000000000000057 1.127986593019159e-14 -1.964877233931025e-15
    vertex 17.999999999999698 4.999999999999438 4.156266827548948e-14
  endloop
endfacet
facet normal 1.0 3.8337583103680977e-14 -1.0942173156914442e-15
  outer loop
    vertex 18.000000000000057 1.127986593019159e-14 -1.964877233931025e-15
    vertex 17.999999999999968 4.999999999999188 84.99999999999999
    vertex 17.999999999999968 -8.022804642848768e-13 84.99999999999993
  endloop
endfacet
facet normal -1.0 -2.326306528328823e-16 2.7046331955644273e-18
  outer loop
    vertex 0.0 -8.022804642848768e-13 84.99999999999993
    vertex 0.0 3.9999999999992593 3.2857159173602826e-14
    vertex 0.0 1.127986593019159e-14 -1.964877233931025e-15
  endloop
endfacet
facet normal -1.0 -2.326306528328823e-16 2.7046331955644273e-18
  outer loop
    vertex 0.0 3.9999999999992593 3.2857159173602826e-14
    vertex 0.0 -8.022804642848768e-13 84.99999999999993
    vertex 0.0 3.999999999999196 84.99999999999997
  endloop
endfacet
facet normal 1.409983241273965e-15 -1.0 -9.135848533907128e-15
  outer loop
    vertex 18.000000000000057 1.127986593019159e-14 -1.964877233931025e-15
    vertex 0.0 -8.022804642848768e-13 84.99999999999993
    vertex 0.0 1.127986593019159e-14 -1.964877233931025e-15
  endloop
endfacet
facet normal 1.409983241273965e-15 -1.0 -9.135848533907128e-15
  outer loop
    vertex 0.0 -8.022804642848768e-13 84.99999999999993
    vertex 18.000000000000057 1.127986593019159e-14 -1.964877233931025e-15
    vertex 17.999999999999968 -8.022804642848768e-13 84.99999999999993
  endloop
endfacet
facet normal 0.0 8.705509101885099e-15 -1.0
  outer loop
    vertex 17.999999999999698 4.999999999999438 4.156266827548948e-14
    vertex 4.000000000000444 7.999999999999286 6.767919558114345e-14
    vertex 14.00000000000011 7.999999999999449 6.767919558114488e-14
  endloop
endfacet
facet normal 0.0 8.705509101885099e-15 -1.0
  outer loop
    vertex 4.000000000000444 7.999999999999286 6.767919558114345e-14
    vertex 17.999999999999698 4.999999999999438 4.156266827548948e-14
    vertex 0.0 3.9999999999992593 3.2857159173602826e-14
  endloop
endfacet
facet normal 0.0 8.705509101885099e-15 -1.0
  outer loop
    vertex 0.0 3.9999999999992593 3.2857159173602826e-14
    vertex 17.999999999999698 4.999999999999438 4.156266827548948e-14
    vertex 18.000000000000057 1.127986593019159e-14 -1.964877233931025e-15
  endloop
endfacet
facet normal 0.0 8.705509101885099e-15 -1.0
  outer loop
    vertex 0.0 3.9999999999992593 3.2857159173602826e-14
    vertex 18.000000000000057 1.127986593019159e-14 -1.964877233931025e-15
    vertex 0.0 1.127986593019159e-14 -1.964877233931025e-15
  endloop
endfacet
facet normal 0.0 -8.705509101885099e-15 1.0
  outer loop
    vertex 0.0 3.999999999999196 84.99999999999997
    vertex 14.00000000000038 7.999999999999245 85.0
    vertex 4.000000000000444 7.999999999999245 85.0
  endloop
endfacet
facet normal 0.0 -8.705509101885099e-15 1.0
  outer loop
    vertex 14.00000000000038 7.999999999999245 85.0
    vertex 0.0 3.999999999999196 84.99999999999997
    vertex 17.999999999999968 4.999999999999188 84.99999999999999
  endloop
endfacet
facet normal 0.0 -8.705509101885099e-15 1.0
  outer loop
    vertex 17.999999999999968 4.999999999999188 84.99999999999999
    vertex 0.0 3.999999999999196 84.99999999999997
    vertex 17.999999999999968 -8.022804642848768e-13 84.99999999999993
  endloop
endfacet
facet normal 0.0 -8.705509101885099e-15 1.0
  outer loop
    vertex 17.999999999999968 -8.022804642848768e-13 84.99999999999993
    vertex 0.0 3.999999999999196 84.99999999999997
    vertex 0.0 -8.022804642848768e-13 84.99999999999993
  endloop
endfacet
facet normal -0.7071067811865113 0.7071067811865839 4.302174278329397e-16
  outer loop
    vertex 4.000000000000444 7.999999999999245 85.0
    vertex 0.0 3.9999999999992593 3.2857159173602826e-14
    vertex 0.0 3.999999999999196 84.99999999999997
  endloop
endfacet
facet normal -0.7071067811865113 0.7071067811865839 4.302174278329397e-16
  outer loop
    vertex 0.0 3.9999999999992593 3.2857159173602826e-14
    vertex 4.000000000000444 7.999999999999245 85.0
    vertex 4.000000000000444 7.999999999999286 6.767919558114345e-14
  endloop
endfacet
facet normal -8.177902799388955e-15 1.0 1.4399483997911108e-15
  outer loop
    vertex 14.00000000000038 7.999999999999245 85.0
    vertex 4.000000000000444 7.999999999999286 6.767919558114345e-14
    vertex 4.000000000000444 7.999999999999245 85.0
  endloop
endfacet
facet normal -8.177902799388955e-15 1.0 1.4399483997911108e-15
  outer loop
    vertex 4.000000000000444 7.999999999999286 6.767919558114345e-14
    vertex 14.00000000000038 7.999999999999245 85.0
    vertex 14.00000000000011 7.999999999999449 6.767919558114488e-14
  endloop
endfacet
facet normal 0.6000000000000442 0.7999999999999671 2.2501134284542665e-16
  outer loop
    vertex 14.00000000000038 7.999999999999245 85.0
    vertex 17.999999999999698 4.999999999999438 4.156266827548948e-14
    vertex 14.00000000000011 7.999999999999449 6.767919558114488e-14
  endloop
endfacet
facet normal 0.6000000000000442 0.7999999999999671 2.2501134284542665e-16
  outer loop
    vertex 17.999999999999698 4.999999999999438 4.156266827548948e-14
    vertex 14.00000000000038 7.999999999999245 85.0
    vertex 17.999999999999968 4.999999999999188 84.99999999999999
  endloop
endfacet
endsolid f-16 3d
