solid f-16 3d
facet normal -8.017361703988139e-16 1.0 3.960873155916924e-15
  outer loop
    vertex 16.000000000000604 -7.000000000000099 41.000000000000185
    vertex 12.000000000000565 -7.000000000000032 -1.0202732076648645e-14
    vertex 12.000000000000565 -7.000000000000319 41.00000000000036
  endloop
endfacet
facet normal -8.017361703988139e-16 1.0 3.960873155916924e-15
  outer loop
    vertex 12.000000000000565 -7.000000000000032 -1.0202732076648645e-14
    vertex 16.000000000000604 -7.000000000000099 41.000000000000185
    vertex 16.000000000000604 -7.0000000000000675 22.000000000000085
  endloop
endfacet
facet normal -8.017361703988139e-16 1.0 3.960873155916924e-15
  outer loop
    vertex 12.000000000000565 -7.000000000000032 -1.0202732076648645e-14
    vertex 16.000000000000604 -7.0000000000000675 22.000000000000085
    vertex 34.00000000000055 -7.000000000000032 -1.0202732076648645e-14
  endloop
endfacet
facet normal -8.017361703988139e-16 1.0 3.960873155916924e-15
  outer loop
    vertex 34.00000000000055 -7.000000000000032 -1.0202732076648645e-14
    vertex 16.000000000000604 -7.0000000000000675 22.000000000000085
    vertex 36.00000000000077 -7.000000000000045 8.000000000000066
  endloop
endfacet
facet normal -8.017361703988139e-16 1.0 3.960873155916924e-15
  outer loop
    vertex 34.00000000000055 -7.000000000000032 -1.0202732076648645e-14
    vertex 36.00000000000077 -7.000000000000045 8.000000000000066
    vertex 36.00000000000077 -7.0000000000000355 1.999999999999986
  endloop
endfacet
facet normal 1.0 -2.2256711181371214e-29 1.3672564763868544e-14
  outer loop
    vertex 2.2000000000003346 -13.000000000000275 41.00000000000017
    vertex 2.2000000000007858 -15.390243902439117 8.000000000000048
    vertex 2.2000000000007858 -11.390243902439122 8.000000000000055
  endloop
endfacet
facet normal 1.0 -2.2256711181371214e-29 1.3672564763868544e-14
  outer loop
    vertex 2.2000000000007858 -15.390243902439117 8.000000000000048
    vertex 2.2000000000003346 -13.000000000000275 41.00000000000017
    vertex 2.2000000000003346 -17.00000000000028 41.00000000000017
  endloop
endfacet
facet normal 0.0 -1.6278373198997268e-15 1.0
  outer loop
    vertex 3.8000000000006926 -15.390243902439105 8.000000000000053
    vertex 3.8000000000006926 -11.390243902439122 8.00000000000006
    vertex 3.0000000000008065 -15.390243902439105 8.000000000000052
  endloop
endfacet
facet normal 0.0 -1.6278373198997268e-15 1.0
  outer loop
    vertex 2.2000000000007858 -15.390243902439117 8.000000000000048
    vertex 3.8000000000006926 -11.390243902439122 8.00000000000006
    vertex 2.2000000000007858 -11.390243902439122 8.000000000000055
  endloop
endfacet
facet normal 0.0 -1.6278373198997268e-15 1.0
  outer loop
    vertex 3.8000000000006926 -11.390243902439122 8.00000000000006
    vertex 2.2000000000007858 -15.390243902439117 8.000000000000048
    vertex 3.0000000000008065 -15.390243902439105 8.000000000000052
  endloop
endfacet
facet normal -1.0 1.1128355590685607e-29 -6.836282381934272e-15
  outer loop
    vertex 3.800000000000467 -17.00000000000028 41.00000000000017
    vertex 3.8000000000006926 -11.390243902439122 8.00000000000006
    vertex 3.8000000000006926 -15.390243902439105 8.000000000000053
  endloop
endfacet
facet normal -1.0 1.1128355590685607e-29 -6.836282381934272e-15
  outer loop
    vertex 3.8000000000006926 -11.390243902439122 8.00000000000006
    vertex 3.800000000000467 -17.00000000000028 41.00000000000017
    vertex 3.800000000000467 -13.000000000000275 41.00000000000017
  endloop
endfacet
facet normal -4.9416928915272414e-17 -0.9988123511248964 -0.04872255371341485
  outer loop
    vertex 2.2000000000007858 -11.390243902439122 8.000000000000055
    vertex 3.800000000000467 -13.000000000000275 41.00000000000017
    vertex 2.2000000000003346 -13.000000000000275 41.00000000000017
  endloop
endfacet
facet normal -4.9416928915272414e-17 -0.9988123511248964 -0.04872255371341485
  outer loop
    vertex 3.800000000000467 -13.000000000000275 41.00000000000017
    vertex 2.2000000000007858 -11.390243902439122 8.000000000000055
    vertex 3.8000000000006926 -11.390243902439122 8.00000000000006
  endloop
endfacet
facet normal 1.0 5.308172202443317e-14 3.107222752650328e-15
  outer loop
    vertex 12.000000000000204 -2.000000000000892 41.00000000000038
    vertex 12.000000000000565 -7.000000000000032 -1.0202732076648645e-14
    vertex 12.000000000000565 -3.9999999999999587 -5.319220116949345e-15
  endloop
endfacet
facet normal 1.0 5.308172202443317e-14 3.107222752650328e-15
  outer loop
    vertex 12.000000000000565 -7.000000000000032 -1.0202732076648645e-14
    vertex 12.000000000000204 -2.000000000000892 41.00000000000038
    vertex 12.000000000000565 -7.000000000000319 41.00000000000036
  endloop
endfacet
facet normal -0.7070016430131262 0.7070016430132011 -0.01724394251249885
  outer loop
    vertex -1.9999999999990488 0.9999999999989556 41.00000000000038
    vertex -5.999999999999493 -4.00000000000002 -5.319220116949445e-15
    vertex -5.999999999999493 -3.000000000001071 41.00000000000038
  endloop
endfacet
facet normal 1.0 0.0 0.0
  outer loop
    vertex 36.00000000000077 -7.000000000000045 8.000000000000066
    vertex 36.00000000000077 -8.000000000000039 1.9999999999999845
    vertex 36.00000000000077 -7.0000000000000355 1.999999999999986
  endloop
endfacet
facet normal 1.0 0.0 0.0
  outer loop
    vertex 36.00000000000077 -8.000000000000039 1.9999999999999845
    vertex 36.00000000000077 -7.000000000000045 8.000000000000066
    vertex 36.00000000000077 -8.000000000000048 8.000000000000064
  endloop
endfacet
facet normal 0.5734623443633258 -1.3335762938740245e-15 0.8192319205190425
  outer loop
    vertex 16.000000000000604 -8.000000000000071 22.000000000000085
    vertex 36.00000000000077 -7.000000000000045 8.000000000000066
    vertex 16.000000000000604 -7.0000000000000675 22.000000000000085
  endloop
endfacet
facet normal 0.5734623443633258 -1.3335762938740245e-15 0.8192319205190425
  outer loop
    vertex 36.00000000000077 -7.000000000000045 8.000000000000066
    vertex 16.000000000000604 -8.000000000000071 22.000000000000085
    vertex 36.00000000000077 -8.000000000000048 8.000000000000064
  endloop
endfacet
facet normal 0.995274633925616 1.556155919905593e-17 -0.09709996428542637
  outer loop
    vertex 16.000000000000604 -8.000000000000103 41.000000000000185
    vertex 12.000000000000565 -11.00000000000003 -1.671408135624755e-14
    vertex 12.000000000000565 -8.000000000000036 -1.1830569396548379e-14
  endloop
endfacet
facet normal 0.5540793504381841 0.8311190256573693 -0.04729945674471596
  outer loop
    vertex 12.000000000000565 -3.9999999999999587 -5.319220116949345e-15
    vertex 5.999999999999989 -2.255973186038318e-14 1.1921291626494592e-15
    vertex 8.000000000000616 0.9999999999991193 41.00000000000038
  endloop
endfacet
facet normal 0.5995436502560778 0.799391533674685 -0.038994708959716906
  outer loop
    vertex 12.000000000000565 -3.9999999999999587 -5.319220116949345e-15
    vertex 8.000000000000616 0.9999999999991193 41.00000000000038
    vertex 12.000000000000204 -2.000000000000892 41.00000000000038
  endloop
endfacet
facet normal 0.5538897119660996 -0.8308345679490841 -0.05403802067961595
  outer loop
    vertex 12.000000000000565 -11.00000000000003 -1.671408135624755e-14
    vertex 7.000000000000664 -17.00000000000028 41.00000000000017
    vertex 6.000000000001027 -15.000000000000034 -2.322543063584647e-14
  endloop
endfacet
facet normal -0.5540793504382616 0.8311190256573189 -0.0472994567446934
  outer loop
    vertex 0.0 0.0 1.1921291626494957e-15
    vertex -5.999999999999493 -4.00000000000002 -5.319220116949445e-15
    vertex -1.9999999999990488 0.9999999999989556 41.00000000000038
  endloop
endfacet
facet normal -0.5538897119660444 -0.8308345679491206 -0.054038020679616834
  outer loop
    vertex 9.023892744153272e-13 -15.000000000000034 -2.322543063584647e-14
    vertex -0.9999999999992762 -16.99999999999994 41.00000000000017
    vertex -5.999999999999493 -11.00000000000003 -1.671408135624755e-14
  endloop
endfacet
facet normal 0.0 -1.0 -1.6278373198997268e-15
  outer loop
    vertex -27.999999999999048 -8.000000000000036 -1.1830569396548379e-14
    vertex -29.999999999999087 -8.000000000000048 8.000000000000064
    vertex -29.999999999999087 -8.000000000000039 1.9999999999999845
  endloop
endfacet
facet normal 0.0 -1.0 -1.6278373198997268e-15
  outer loop
    vertex -29.999999999999087 -8.000000000000048 8.000000000000064
    vertex -27.999999999999048 -8.000000000000036 -1.1830569396548379e-14
    vertex -9.99999999999908 -8.000000000000071 22.000000000000085
  endloop
endfacet
facet normal 0.0 -1.0 -1.6278373198997268e-15
  outer loop
    vertex -9.99999999999908 -8.000000000000071 22.000000000000085
    vertex -27.999999999999048 -8.000000000000036 -1.1830569396548379e-14
    vertex -5.999999999999493 -8.000000000000036 -1.1830569396548379e-14
  endloop
endfacet
facet normal 0.0 -1.0 -1.6278373198997268e-15
  outer loop
    vertex -9.99999999999908 -8.000000000000071 22.000000000000085
    vertex -5.999999999999493 -8.000000000000036 -1.1830569396548379e-14
    vertex -9.99999999999908 -8.000000000000103 41.000000000000185
  endloop
endfacet
facet normal -1.102287579436459e-14 0.9997026906430506 -0.024382992454685132
  outer loop
    vertex 8.000000000000616 0.9999999999991193 41.00000000000038
    vertex 0.0 0.0 1.1921291626494957e-15
    vertex -1.9999999999990488 0.9999999999989556 41.00000000000038
  endloop
endfacet
facet normal -1.102287579436459e-14 0.9997026906430506 -0.024382992454685132
  outer loop
    vertex 0.0 0.0 1.1921291626494957e-15
    vertex 8.000000000000616 0.9999999999991193 41.00000000000038
    vertex 5.999999999999989 -2.255973186038318e-14 1.1921291626494592e-15
  endloop
endfacet
facet normal 0.7070016430131724 -0.7070016430131544 -0.017243942512519882
  outer loop
    vertex 7.000000000000664 -17.00000000000028 41.00000000000017
    vertex 12.000000000000565 -11.00000000000003 -1.671408135624755e-14
    vertex 16.000000000000604 -8.000000000000103 41.000000000000185
  endloop
endfacet
facet normal 8.01736170398746e-16 1.0 3.960873155916946e-15
  outer loop
    vertex -5.999999999999493 -7.000000000000319 41.00000000000036
    vertex -9.99999999999908 -7.0000000000000675 22.000000000000085
    vertex -9.99999999999908 -7.000000000000099 41.000000000000185
  endloop
endfacet
facet normal 8.01736170398746e-16 1.0 3.960873155916946e-15
  outer loop
    vertex -9.99999999999908 -7.0000000000000675 22.000000000000085
    vertex -29.999999999999087 -7.0000000000000355 1.999999999999986
    vertex -29.999999999999087 -7.000000000000045 8.000000000000066
  endloop
endfacet
facet normal 8.01736170398746e-16 1.0 3.960873155916946e-15
  outer loop
    vertex -29.999999999999087 -7.0000000000000355 1.999999999999986
    vertex -9.99999999999908 -7.0000000000000675 22.000000000000085
    vertex -27.999999999999048 -7.000000000000032 -1.0202732076648645e-14
  endloop
endfacet
facet normal 8.01736170398746e-16 1.0 3.960873155916946e-15
  outer loop
    vertex -27.999999999999048 -7.000000000000032 -1.0202732076648645e-14
    vertex -9.99999999999908 -7.0000000000000675 22.000000000000085
    vertex -5.999999999999493 -7.000000000000032 -1.0202732076648645e-14
  endloop
endfacet
facet normal 8.01736170398746e-16 1.0 3.960873155916946e-15
  outer loop
    vertex -5.999999999999493 -7.000000000000032 -1.0202732076648645e-14
    vertex -9.99999999999908 -7.0000000000000675 22.000000000000085
    vertex -5.999999999999493 -7.000000000000319 41.00000000000036
  endloop
endfacet
facet normal 0.0 -1.0 -1.6278373198997268e-15
  outer loop
    vertex 34.00000000000055 -8.000000000000036 -1.1830569396548379e-14
    vertex 16.000000000000604 -8.000000000000071 22.000000000000085
    vertex 12.000000000000565 -8.000000000000036 -1.1830569396548379e-14
  endloop
endfacet
facet normal 0.0 -1.0 -1.6278373198997268e-15
  outer loop
    vertex 16.000000000000604 -8.000000000000071 22.000000000000085
    vertex 34.00000000000055 -8.000000000000036 -1.1830569396548379e-14
    vertex 36.00000000000077 -8.000000000000048 8.000000000000064
  endloop
endfacet
facet normal 0.0 -1.0 -1.6278373198997268e-15
  outer loop
    vertex 36.00000000000077 -8.000000000000048 8.000000000000064
    vertex 34.00000000000055 -8.000000000000036 -1.1830569396548379e-14
    vertex 36.00000000000077 -8.000000000000039 1.9999999999999845
  endloop
endfacet
facet normal 0.0 -1.0 -1.6278373198997268e-15
  outer loop
    vertex 16.000000000000604 -8.000000000000103 41.000000000000185
    vertex 12.000000000000565 -8.000000000000036 -1.1830569396548379e-14
    vertex 16.000000000000604 -8.000000000000071 22.000000000000085
  endloop
endfacet
facet normal -2.6394587424949234e-14 -0.9988123511248966 -0.048722553713412886
  outer loop
    vertex 9.023892744153272e-13 -15.000000000000034 -2.322543063584647e-14
    vertex 2.2000000000003346 -17.00000000000028 41.00000000000017
    vertex -0.9999999999992762 -16.99999999999994 41.00000000000017
  endloop
endfacet
facet normal -2.6394587424949234e-14 -0.9988123511248966 -0.048722553713412886
  outer loop
    vertex 2.2000000000003346 -17.00000000000028 41.00000000000017
    vertex 9.023892744153272e-13 -15.000000000000034 -2.322543063584647e-14
    vertex 2.2000000000007858 -15.390243902439117 8.000000000000048
  endloop
endfacet
facet normal -2.6394587424949234e-14 -0.9988123511248966 -0.048722553713412886
  outer loop
    vertex 2.2000000000007858 -15.390243902439117 8.000000000000048
    vertex 9.023892744153272e-13 -15.000000000000034 -2.322543063584647e-14
    vertex 6.000000000001027 -15.000000000000034 -2.322543063584647e-14
  endloop
endfacet
facet normal -2.6394587424949234e-14 -0.9988123511248966 -0.048722553713412886
  outer loop
    vertex 2.2000000000007858 -15.390243902439117 8.000000000000048
    vertex 6.000000000001027 -15.000000000000034 -2.322543063584647e-14
    vertex 3.0000000000008065 -15.390243902439105 8.000000000000052
  endloop
endfacet
facet normal -2.6394587424949234e-14 -0.9988123511248966 -0.048722553713412886
  outer loop
    vertex 3.0000000000008065 -15.390243902439105 8.000000000000052
    vertex 6.000000000001027 -15.000000000000034 -2.322543063584647e-14
    vertex 3.8000000000006926 -15.390243902439105 8.000000000000053
  endloop
endfacet
facet normal -2.6394587424949234e-14 -0.9988123511248966 -0.048722553713412886
  outer loop
    vertex 3.8000000000006926 -15.390243902439105 8.000000000000053
    vertex 7.000000000000664 -17.00000000000028 41.00000000000017
    vertex 3.800000000000467 -17.00000000000028 41.00000000000017
  endloop
endfacet
facet normal -2.6394587424949234e-14 -0.9988123511248966 -0.048722553713412886
  outer loop
    vertex 7.000000000000664 -17.00000000000028 41.00000000000017
    vertex 3.8000000000006926 -15.390243902439105 8.000000000000053
    vertex 6.000000000001027 -15.000000000000034 -2.322543063584647e-14
  endloop
endfacet
facet normal -0.7070016430131638 -0.7070016430131632 -0.017243942512511816
  outer loop
    vertex -0.9999999999992762 -16.99999999999994 41.00000000000017
    vertex -9.99999999999908 -8.000000000000103 41.000000000000185
    vertex -5.999999999999493 -11.00000000000003 -1.671408135624755e-14
  endloop
endfacet
facet normal 0.7071067811865077 1.151054807569697e-15 -0.7071067811865874
  outer loop
    vertex 36.00000000000077 -8.000000000000039 1.9999999999999845
    vertex 34.00000000000055 -7.000000000000032 -1.0202732076648645e-14
    vertex 36.00000000000077 -7.0000000000000355 1.999999999999986
  endloop
endfacet
facet normal 0.7071067811865077 1.151054807569697e-15 -0.7071067811865874
  outer loop
    vertex 34.00000000000055 -7.000000000000032 -1.0202732076648645e-14
    vertex 36.00000000000077 -8.000000000000039 1.9999999999999845
    vertex 34.00000000000055 -8.000000000000036 -1.1830569396548379e-14
  endloop
endfacet
facet normal -1.0 -0.0 0.0
  outer loop
    vertex -5.999999999999493 -7.000000000000319 41.00000000000036
    vertex -5.999999999999493 -4.00000000000002 -5.319220116949445e-15
    vertex -5.999999999999493 -7.000000000000032 -1.0202732076648645e-14
  endloop
endfacet
facet normal -1.0 -0.0 0.0
  outer loop
    vertex -5.999999999999493 -4.00000000000002 -5.319220116949445e-15
    vertex -5.999999999999493 -7.000000000000319 41.00000000000036
    vertex -5.999999999999493 -3.000000000001071 41.00000000000038
  endloop
endfacet
facet normal 9.018130913244462e-34 1.6278373198997276e-15 -1.0
  outer loop
    vertex 12.000000000000565 -11.00000000000003 -1.671408135624755e-14
    vertex -5.999999999999493 -8.000000000000036 -1.1830569396548379e-14
    vertex 12.000000000000565 -8.000000000000036 -1.1830569396548379e-14
  endloop
endfacet
facet normal 9.018130913244462e-34 1.6278373198997276e-15 -1.0
  outer loop
    vertex -5.999999999999493 -8.000000000000036 -1.1830569396548379e-14
    vertex 12.000000000000565 -11.00000000000003 -1.671408135624755e-14
    vertex -5.999999999999493 -11.00000000000003 -1.671408135624755e-14
  endloop
endfacet
facet normal 9.018130913244462e-34 1.6278373198997276e-15 -1.0
  outer loop
    vertex -5.999999999999493 -11.00000000000003 -1.671408135624755e-14
    vertex 12.000000000000565 -11.00000000000003 -1.671408135624755e-14
    vertex 6.000000000001027 -15.000000000000034 -2.322543063584647e-14
  endloop
endfacet
facet normal 9.018130913244462e-34 1.6278373198997276e-15 -1.0
  outer loop
    vertex -5.999999999999493 -11.00000000000003 -1.671408135624755e-14
    vertex 6.000000000001027 -15.000000000000034 -2.322543063584647e-14
    vertex 9.023892744153272e-13 -15.000000000000034 -2.322543063584647e-14
  endloop
endfacet
facet normal 9.018130913244462e-34 1.6278373198997276e-15 -1.0
  outer loop
    vertex 34.00000000000055 -8.000000000000036 -1.1830569396548379e-14
    vertex 12.000000000000565 -7.000000000000032 -1.0202732076648645e-14
    vertex 34.00000000000055 -7.000000000000032 -1.0202732076648645e-14
  endloop
endfacet
facet normal 9.018130913244462e-34 1.6278373198997276e-15 -1.0
  outer loop
    vertex 12.000000000000565 -7.000000000000032 -1.0202732076648645e-14
    vertex 34.00000000000055 -8.000000000000036 -1.1830569396548379e-14
    vertex -5.999999999999493 -7.000000000000032 -1.0202732076648645e-14
  endloop
endfacet
facet normal 9.018130913244462e-34 1.6278373198997276e-15 -1.0
  outer loop
    vertex -5.999999999999493 -7.000000000000032 -1.0202732076648645e-14
    vertex 34.00000000000055 -8.000000000000036 -1.1830569396548379e-14
    vertex -27.999999999999048 -7.000000000000032 -1.0202732076648645e-14
  endloop
endfacet
facet normal 9.018130913244462e-34 1.6278373198997276e-15 -1.0
  outer loop
    vertex -27.999999999999048 -7.000000000000032 -1.0202732076648645e-14
    vertex 34.00000000000055 -8.000000000000036 -1.1830569396548379e-14
    vertex -27.999999999999048 -8.000000000000036 -1.1830569396548379e-14
  endloop
endfacet
facet normal 9.018130913244462e-34 1.6278373198997276e-15 -1.0
  outer loop
    vertex -27.999999999999048 -8.000000000000036 -1.1830569396548379e-14
    vertex 34.00000000000055 -8.000000000000036 -1.1830569396548379e-14
    vertex 12.000000000000565 -8.000000000000036 -1.1830569396548379e-14
  endloop
endfacet
facet normal 9.018130913244462e-34 1.6278373198997276e-15 -1.0
  outer loop
    vertex -27.999999999999048 -8.000000000000036 -1.1830569396548379e-14
    vertex 12.000000000000565 -8.000000000000036 -1.1830569396548379e-14
    vertex -5.999999999999493 -8.000000000000036 -1.1830569396548379e-14
  endloop
endfacet
facet normal 9.018130913244462e-34 1.6278373198997276e-15 -1.0
  outer loop
    vertex 5.999999999999989 -2.255973186038318e-14 1.1921291626494592e-15
    vertex -5.999999999999493 -4.00000000000002 -5.319220116949445e-15
    vertex 0.0 0.0 1.1921291626494957e-15
  endloop
endfacet
facet normal 9.018130913244462e-34 1.6278373198997276e-15 -1.0
  outer loop
    vertex -5.999999999999493 -4.00000000000002 -5.319220116949445e-15
    vertex 5.999999999999989 -2.255973186038318e-14 1.1921291626494592e-15
    vertex 12.000000000000565 -3.9999999999999587 -5.319220116949345e-15
  endloop
endfacet
facet normal 9.018130913244462e-34 1.6278373198997276e-15 -1.0
  outer loop
    vertex -5.999999999999493 -4.00000000000002 -5.319220116949445e-15
    vertex 12.000000000000565 -3.9999999999999587 -5.319220116949345e-15
    vertex 12.000000000000565 -7.000000000000032 -1.0202732076648645e-14
  endloop
endfacet
facet normal 9.018130913244462e-34 1.6278373198997276e-15 -1.0
  outer loop
    vertex -5.999999999999493 -4.00000000000002 -5.319220116949445e-15
    vertex 12.000000000000565 -7.000000000000032 -1.0202732076648645e-14
    vertex -5.999999999999493 -7.000000000000032 -1.0202732076648645e-14
  endloop
endfacet
facet normal -0.9952746339256171 1.5806294562473005e-16 -0.09709996428541555
  outer loop
    vertex -9.99999999999908 -8.000000000000103 41.000000000000185
    vertex -5.999999999999493 -8.000000000000036 -1.1830569396548379e-14
    vertex -5.999999999999493 -11.00000000000003 -1.671408135624755e-14
  endloop
endfacet
facet normal -1.0 -0.0 0.0
  outer loop
    vertex -9.99999999999908 -8.000000000000071 22.000000000000085
    vertex -9.99999999999908 -7.000000000000099 41.000000000000185
    vertex -9.99999999999908 -7.0000000000000675 22.000000000000085
  endloop
endfacet
facet normal -1.0 -0.0 0.0
  outer loop
    vertex -9.99999999999908 -7.000000000000099 41.000000000000185
    vertex -9.99999999999908 -8.000000000000071 22.000000000000085
    vertex -9.99999999999908 -8.000000000000103 41.000000000000185
  endloop
endfacet
facet normal -0.7071067811865396 1.151054807569645e-15 -0.7071067811865555
  outer loop
    vertex -27.999999999999048 -8.000000000000036 -1.1830569396548379e-14
    vertex -29.999999999999087 -7.0000000000000355 1.999999999999986
    vertex -27.999999999999048 -7.000000000000032 -1.0202732076648645e-14
  endloop
endfacet
facet normal -0.7071067811865396 1.151054807569645e-15 -0.7071067811865555
  outer loop
    vertex -29.999999999999087 -7.0000000000000355 1.999999999999986
    vertex -27.999999999999048 -8.000000000000036 -1.1830569396548379e-14
    vertex -29.999999999999087 -8.000000000000039 1.9999999999999845
  endloop
endfacet
facet normal 1.0 0.0 0.0
  outer loop
    vertex 16.000000000000604 -7.000000000000099 41.000000000000185
    vertex 16.000000000000604 -8.000000000000071 22.000000000000085
    vertex 16.000000000000604 -7.0000000000000675 22.000000000000085
  endloop
endfacet
facet normal 1.0 0.0 0.0
  outer loop
    vertex 16.000000000000604 -8.000000000000071 22.000000000000085
    vertex 16.000000000000604 -7.000000000000099 41.000000000000185
    vertex 16.000000000000604 -8.000000000000103 41.000000000000185
  endloop
endfacet
facet normal -1.0 -0.0 0.0
  outer loop
    vertex -29.999999999999087 -8.000000000000048 8.000000000000064
    vertex -29.999999999999087 -7.0000000000000355 1.999999999999986
    vertex -29.999999999999087 -8.000000000000039 1.9999999999999845
  endloop
endfacet
facet normal -1.0 -0.0 0.0
  outer loop
    vertex -29.999999999999087 -7.0000000000000355 1.999999999999986
    vertex -29.999999999999087 -8.000000000000048 8.000000000000064
    vertex -29.999999999999087 -7.000000000000045 8.000000000000066
  endloop
endfacet
facet normal -0.5734623443633289 -1.3335762938740203e-15 0.8192319205190401
  outer loop
    vertex -29.999999999999087 -8.000000000000048 8.000000000000064
    vertex -9.99999999999908 -7.0000000000000675 22.000000000000085
    vertex -29.999999999999087 -7.000000000000045 8.000000000000066
  endloop
endfacet
facet normal -0.5734623443633289 -1.3335762938740203e-15 0.8192319205190401
  outer loop
    vertex -9.99999999999908 -7.0000000000000675 22.000000000000085
    vertex -29.999999999999087 -8.000000000000048 8.000000000000064
    vertex -9.99999999999908 -8.000000000000071 22.000000000000085
  endloop
endfacet
facet normal 9.114040769367648e-17 -1.2595066379028514e-14 1.0
  outer loop
    vertex -9.99999999999908 -8.000000000000103 41.000000000000185
    vertex -5.999999999999493 -7.000000000000319 41.00000000000036
    vertex -9.99999999999908 -7.000000000000099 41.000000000000185
  endloop
endfacet
facet normal 9.114040769367648e-17 -1.2595066379028514e-14 1.0
  outer loop
    vertex -5.999999999999493 -7.000000000000319 41.00000000000036
    vertex -9.99999999999908 -8.000000000000103 41.000000000000185
    vertex 12.000000000000565 -7.000000000000319 41.00000000000036
  endloop
endfacet
facet normal 9.114040769367648e-17 -1.2595066379028514e-14 1.0
  outer loop
    vertex -1.9999999999990488 0.9999999999989556 41.00000000000038
    vertex 12.000000000000204 -2.000000000000892 41.00000000000038
    vertex 8.000000000000616 0.9999999999991193 41.00000000000038
  endloop
endfacet
facet normal 9.114040769367648e-17 -1.2595066379028514e-14 1.0
  outer loop
    vertex 12.000000000000204 -2.000000000000892 41.00000000000038
    vertex -1.9999999999990488 0.9999999999989556 41.00000000000038
    vertex -5.999999999999493 -3.000000000001071 41.00000000000038
  endloop
endfacet
facet normal 9.114040769367648e-17 -1.2595066379028514e-14 1.0
  outer loop
    vertex 12.000000000000204 -2.000000000000892 41.00000000000038
    vertex -5.999999999999493 -3.000000000001071 41.00000000000038
    vertex 12.000000000000565 -7.000000000000319 41.00000000000036
  endloop
endfacet
facet normal 9.114040769367648e-17 -1.2595066379028514e-14 1.0
  outer loop
    vertex 12.000000000000565 -7.000000000000319 41.00000000000036
    vertex -5.999999999999493 -3.000000000001071 41.00000000000038
    vertex -5.999999999999493 -7.000000000000319 41.00000000000036
  endloop
endfacet
facet normal 9.114040769367648e-17 -1.2595066379028514e-14 1.0
  outer loop
    vertex 12.000000000000565 -7.000000000000319 41.00000000000036
    vertex 16.000000000000604 -8.000000000000103 41.000000000000185
    vertex 16.000000000000604 -7.000000000000099 41.000000000000185
  endloop
endfacet
facet normal 9.114040769367648e-17 -1.2595066379028514e-14 1.0
  outer loop
    vertex 16.000000000000604 -8.000000000000103 41.000000000000185
    vertex 12.000000000000565 -7.000000000000319 41.00000000000036
    vertex -9.99999999999908 -8.000000000000103 41.000000000000185
  endloop
endfacet
facet normal 9.114040769367648e-17 -1.2595066379028514e-14 1.0
  outer loop
    vertex 16.000000000000604 -8.000000000000103 41.000000000000185
    vertex -9.99999999999908 -8.000000000000103 41.000000000000185
    vertex 2.2000000000003346 -13.000000000000275 41.00000000000017
  endloop
endfacet
facet normal 9.114040769367648e-17 -1.2595066379028514e-14 1.0
  outer loop
    vertex 2.2000000000003346 -13.000000000000275 41.00000000000017
    vertex -9.99999999999908 -8.000000000000103 41.000000000000185
    vertex -0.9999999999992762 -16.99999999999994 41.00000000000017
  endloop
endfacet
facet normal 9.114040769367648e-17 -1.2595066379028514e-14 1.0
  outer loop
    vertex 2.2000000000003346 -13.000000000000275 41.00000000000017
    vertex -0.9999999999992762 -16.99999999999994 41.00000000000017
    vertex 2.2000000000003346 -17.00000000000028 41.00000000000017
  endloop
endfacet
facet normal 9.114040769367648e-17 -1.2595066379028514e-14 1.0
  outer loop
    vertex 16.000000000000604 -8.000000000000103 41.000000000000185
    vertex 3.800000000000467 -13.000000000000275 41.00000000000017
    vertex 7.000000000000664 -17.00000000000028 41.00000000000017
  endloop
endfacet
facet normal 9.114040769367648e-17 -1.2595066379028514e-14 1.0
  outer loop
    vertex 3.800000000000467 -13.000000000000275 41.00000000000017
    vertex 16.000000000000604 -8.000000000000103 41.000000000000185
    vertex 2.2000000000003346 -13.000000000000275 41.00000000000017
  endloop
endfacet
facet normal 9.114040769367648e-17 -1.2595066379028514e-14 1.0
  outer loop
    vertex 7.000000000000664 -17.00000000000028 41.00000000000017
    vertex 3.800000000000467 -13.000000000000275 41.00000000000017
    vertex 3.800000000000467 -17.00000000000028 41.00000000000017
  endloop
endfacet
endsolid f-16 3d
