solid f-16 3d
facet normal -5.539252097982052e-14 -2.679607269331991e-15 1.0
  outer loop
    vertex 2.9999999999998703 27.999999999999858 0.9999999999999659
    vertex 2.9999999999999383 0.0 1.000000000000417
    vertex 8.999999999999918 0.0 1.0000000000003497
  endloop
endfacet
facet normal -5.539252097982052e-14 -2.679607269331991e-15 1.0
  outer loop
    vertex 28.999999999999705 -27.00000000000022 1.000000000001494
    vertex 5.999999999999764 -33.00000000000012 1.0000000000001579
    vertex 28.999999999999705 -41.0000000000002 1.000000000001494
  endloop
endfacet
facet normal -5.539252097982052e-14 -2.679607269331991e-15 1.0
  outer loop
    vertex 5.999999999999764 -33.00000000000012 1.0000000000001579
    vertex 28.999999999999705 -27.00000000000022 1.000000000001494
    vertex -1.6097560975611653 -33.00000000000012 0.999999999999671
  endloop
endfacet
facet normal -5.539252097982052e-14 -2.679607269331991e-15 1.0
  outer loop
    vertex -1.6097560975611653 -33.00000000000012 0.999999999999671
    vertex 28.999999999999705 -27.00000000000022 1.000000000001494
    vertex -6.203926261605374e-14 0.0 1.0000000000002252
  endloop
endfacet
facet normal -5.539252097982052e-14 -2.679607269331991e-15 1.0
  outer loop
    vertex -6.203926261605374e-14 0.0 1.0000000000002252
    vertex 28.999999999999705 -27.00000000000022 1.000000000001494
    vertex 8.999999999999918 0.0 1.0000000000003497
  endloop
endfacet
facet normal -5.539252097982052e-14 -2.679607269331991e-15 1.0
  outer loop
    vertex -6.203926261605374e-14 0.0 1.0000000000002252
    vertex 8.999999999999918 0.0 1.0000000000003497
    vertex 2.9999999999999383 0.0 1.000000000000417
  endloop
endfacet
facet normal 0.977802414077409 0.20952908873087617 6.255647567866639e-14
  outer loop
    vertex 8.999999999999982 0.0 6.674508168380554e-13
    vertex 2.9999999999998703 27.999999999999858 0.9999999999999659
    vertex 8.999999999999918 0.0 1.0000000000003497
  endloop
endfacet
facet normal 0.977802414077409 0.20952908873087617 6.255647567866639e-14
  outer loop
    vertex 2.9999999999998703 27.999999999999858 0.9999999999999659
    vertex 8.999999999999982 0.0 6.674508168380554e-13
    vertex 2.9999999999999347 27.999999999999858 2.8358287940122294e-13
  endloop
endfacet
facet normal -1.0 0.0 -6.397660179402465e-14
  outer loop
    vertex 28.999999999999766 -27.00000000000022 1.6762938259695658e-12
    vertex 28.999999999999705 -41.0000000000002 1.000000000001494
    vertex 28.999999999999705 -27.00000000000022 1.000000000001494
  endloop
endfacet
facet normal -1.0 0.0 -6.397660179402465e-14
  outer loop
    vertex 28.999999999999705 -41.0000000000002 1.000000000001494
    vertex 28.999999999999766 -27.00000000000022 1.6762938259695658e-12
    vertex 28.999999999999766 -41.0000000000002 1.6762938259695658e-12
  endloop
endfacet
facet normal 0.8035571933447512 0.5952275506257302 5.127562591411197e-14
  outer loop
    vertex 28.999999999999705 -27.00000000000022 1.000000000001494
    vertex 8.999999999999982 0.0 6.674508168380554e-13
    vertex 8.999999999999918 0.0 1.0000000000003497
  endloop
endfacet
facet normal 0.8035571933447512 0.5952275506257302 5.127562591411197e-14
  outer loop
    vertex 8.999999999999982 0.0 6.674508168380554e-13
    vertex 28.999999999999705 -27.00000000000022 1.000000000001494
    vertex 28.999999999999766 -27.00000000000022 1.6762938259695658e-12
  endloop
endfacet
facet normal -0.32852062494127626 -0.9444967967061579 -1.9259702376416534e-14
  outer loop
    vertex 28.999999999999766 -41.0000000000002 1.6762938259695658e-12
    vertex 5.999999999999764 -33.00000000000012 1.0000000000001579
    vertex 5.999999999999815 -33.00000000000012 2.0480006579504106e-13
  endloop
endfacet
facet normal -0.32852062494127626 -0.9444967967061579 -1.9259702376416534e-14
  outer loop
    vertex 5.999999999999764 -33.00000000000012 1.0000000000001579
    vertex 28.999999999999766 -41.0000000000002 1.6762938259695658e-12
    vertex 28.999999999999705 -41.0000000000002 1.000000000001494
  endloop
endfacet
facet normal -0.9988123511248965 0.04872255371341327 -6.323445778376331e-14
  outer loop
    vertex 1.762479051592436e-15 1.6919798895287383e-14 1.4099832412739487e-15
    vertex -1.6097560975611653 -33.00000000000012 0.999999999999671
    vertex -6.203926261605374e-14 0.0 1.0000000000002252
  endloop
endfacet
facet normal -0.9988123511248965 0.04872255371341327 -6.323445778376331e-14
  outer loop
    vertex -1.6097560975611653 -33.00000000000012 0.999999999999671
    vertex 1.762479051592436e-15 1.6919798895287383e-14 1.4099832412739487e-15
    vertex -1.6097560975611014 -33.00000000000011 -5.527134305793879e-13
  endloop
endfacet
facet normal -1.0 -2.41711412789821e-15 -6.397660179402465e-14
  outer loop
    vertex 2.9999999999998703 27.999999999999858 0.9999999999999659
    vertex 3.000000000000002 0.0 2.8358287940122294e-13
    vertex 2.9999999999999383 0.0 1.000000000000417
  endloop
endfacet
facet normal -1.0 -2.41711412789821e-15 -6.397660179402465e-14
  outer loop
    vertex 3.000000000000002 0.0 2.8358287940122294e-13
    vertex 2.9999999999998703 27.999999999999858 0.9999999999999659
    vertex 2.9999999999999347 27.999999999999858 2.8358287940122294e-13
  endloop
endfacet
facet normal 6.732597739445202e-14 6.8977501660802556e-15 -1.0
  outer loop
    vertex 5.999999999999815 -33.00000000000012 2.0480006579504106e-13
    vertex 28.999999999999766 -27.00000000000022 1.6762938259695658e-12
    vertex 28.999999999999766 -41.0000000000002 1.6762938259695658e-12
  endloop
endfacet
facet normal 6.732597739445202e-14 6.8977501660802556e-15 -1.0
  outer loop
    vertex 28.999999999999766 -27.00000000000022 1.6762938259695658e-12
    vertex 5.999999999999815 -33.00000000000012 2.0480006579504106e-13
    vertex -1.6097560975611014 -33.00000000000011 -5.527134305793879e-13
  endloop
endfacet
facet normal 6.732597739445202e-14 6.8977501660802556e-15 -1.0
  outer loop
    vertex 28.999999999999766 -27.00000000000022 1.6762938259695658e-12
    vertex -1.6097560975611014 -33.00000000000011 -5.527134305793879e-13
    vertex 1.762479051592436e-15 1.6919798895287383e-14 1.4099832412739487e-15
  endloop
endfacet
facet normal 6.732597739445202e-14 6.8977501660802556e-15 -1.0
  outer loop
    vertex 28.999999999999766 -27.00000000000022 1.6762938259695658e-12
    vertex 1.762479051592436e-15 1.6919798895287383e-14 1.4099832412739487e-15
    vertex 3.000000000000002 0.0 2.8358287940122294e-13
  endloop
endfacet
facet normal 6.732597739445202e-14 6.8977501660802556e-15 -1.0
  outer loop
    vertex 3.000000000000002 0.0 2.8358287940122294e-13
    vertex 8.999999999999982 0.0 6.674508168380554e-13
    vertex 28.999999999999766 -27.00000000000022 1.6762938259695658e-12
  endloop
endfacet
facet normal 6.732597739445202e-14 6.8977501660802556e-15 -1.0
  outer loop
    vertex 8.999999999999982 0.0 6.674508168380554e-13
    vertex 3.000000000000002 0.0 2.8358287940122294e-13
    vertex 2.9999999999999347 27.999999999999858 2.8358287940122294e-13
  endloop
endfacet
facet normal 2.819966482547229e-15 1.0 8.459899447642742e-15
  outer loop
    vertex 2.9999999999999383 0.0 1.000000000000417
    vertex 1.762479051592436e-15 1.6919798895287383e-14 1.4099832412739487e-15
    vertex -6.203926261605374e-14 0.0 1.0000000000002252
  endloop
endfacet
facet normal 2.819966482547229e-15 1.0 8.459899447642742e-15
  outer loop
    vertex 1.762479051592436e-15 1.6919798895287383e-14 1.4099832412739487e-15
    vertex 2.9999999999999383 0.0 1.000000000000417
    vertex 3.000000000000002 0.0 2.8358287940122294e-13
  endloop
endfacet
facet normal -1.0181404554075044e-15 -1.0 -5.639932965097265e-15
  outer loop
    vertex 5.999999999999815 -33.00000000000012 2.0480006579504106e-13
    vertex -1.6097560975611653 -33.00000000000012 0.999999999999671
    vertex -1.6097560975611014 -33.00000000000011 -5.527134305793879e-13
  endloop
endfacet
facet normal -1.0181404554075044e-15 -1.0 -5.639932965097265e-15
  outer loop
    vertex -1.6097560975611653 -33.00000000000012 0.999999999999671
    vertex 5.999999999999815 -33.00000000000012 2.0480006579504106e-13
    vertex 5.999999999999764 -33.00000000000012 1.0000000000001579
  endloop
endfacet
endsolid f-16 3d
